<svg xmlns="http://www.w3.org/2000/svg" viewBox="0 0 1921 675"><defs><style>.cls-1{isolation:isolate;}.cls-2{fill:#051628;mix-blend-mode:overlay;}.cls-3{fill:#fff;}</style></defs><title>about-us-page-header</title><g class="cls-1"><g id="Layer_1" data-name="Layer 1"><rect id="about-us-page-bg" class="cls-2" width="1921" height="675"/><g id="stars"><ellipse class="cls-3" cx="298.51" cy="182.96" rx="3.01" ry="2.52"/><ellipse class="cls-3" cx="957.67" cy="228.65" rx="3.01" ry="2.52"/><ellipse class="cls-3" cx="748.09" cy="9.52" rx="3.01" ry="2.52"/><ellipse class="cls-3" cx="460.82" cy="243.8" rx="3.01" ry="2.52"/><ellipse class="cls-3" cx="466.84" cy="389.21" rx="3.01" ry="2.52"/><ellipse class="cls-3" cx="519.24" cy="139.28" rx="3.01" ry="2.52"/><ellipse class="cls-3" cx="301.22" cy="456.36" rx="3.01" ry="2.52"/><ellipse class="cls-3" cx="648.72" cy="465.95" rx="3.01" ry="2.52"/><ellipse class="cls-3" cx="988.99" cy="468.48" rx="3.01" ry="2.52"/></g><ellipse class="cls-3" cx="672.51" cy="80.96" rx="3.01" ry="2.52"/><ellipse class="cls-3" cx="1331.67" cy="126.65" rx="3.01" ry="2.52"/><ellipse class="cls-3" cx="834.82" cy="141.8" rx="3.01" ry="2.52"/><ellipse class="cls-3" cx="840.84" cy="287.21" rx="3.01" ry="2.52"/><ellipse class="cls-3" cx="893.24" cy="37.28" rx="3.01" ry="2.52"/><ellipse class="cls-3" cx="675.22" cy="354.36" rx="3.01" ry="2.52"/><ellipse class="cls-3" cx="1022.72" cy="363.95" rx="3.01" ry="2.52"/><ellipse class="cls-3" cx="1362.99" cy="366.48" rx="3.01" ry="2.52"/><ellipse class="cls-3" cx="1712.67" cy="42.65" rx="3.01" ry="2.52"/><ellipse class="cls-3" cx="1215.82" cy="57.8" rx="3.01" ry="2.52"/><ellipse class="cls-3" cx="1221.84" cy="203.21" rx="3.01" ry="2.52"/><ellipse class="cls-3" cx="1056.22" cy="270.36" rx="3.01" ry="2.52"/><ellipse class="cls-3" cx="1403.72" cy="279.95" rx="3.01" ry="2.52"/><ellipse class="cls-3" cx="1743.99" cy="282.48" rx="3.01" ry="2.52"/><ellipse class="cls-3" cx="659.67" cy="49.65" rx="3.01" ry="2.52"/><ellipse class="cls-3" cx="162.82" cy="64.8" rx="3.01" ry="2.52"/><ellipse class="cls-3" cx="168.84" cy="210.21" rx="3.01" ry="2.52"/><ellipse class="cls-3" cx="3.22" cy="277.36" rx="3.01" ry="2.52"/><ellipse class="cls-3" cx="350.72" cy="286.95" rx="3.01" ry="2.52"/><ellipse class="cls-3" cx="690.99" cy="289.48" rx="3.01" ry="2.52"/><ellipse class="cls-3" cx="1334.51" cy="225.96" rx="3.01" ry="2.52"/><ellipse class="cls-3" cx="1784.09" cy="52.52" rx="3.01" ry="2.52"/><ellipse class="cls-3" cx="1496.82" cy="286.8" rx="3.01" ry="2.52"/><ellipse class="cls-3" cx="1502.84" cy="432.21" rx="3.01" ry="2.52"/><ellipse class="cls-3" cx="1555.24" cy="182.28" rx="3.01" ry="2.52"/><ellipse class="cls-3" cx="1337.22" cy="499.36" rx="3.01" ry="2.52"/><ellipse class="cls-3" cx="1684.72" cy="508.95" rx="3.01" ry="2.52"/><ellipse class="cls-3" cx="1536.51" cy="21.96" rx="3.01" ry="2.52"/><ellipse class="cls-3" cx="1698.82" cy="82.8" rx="3.01" ry="2.52"/><ellipse class="cls-3" cx="1704.84" cy="228.21" rx="3.01" ry="2.52"/><ellipse class="cls-3" cx="1539.22" cy="295.36" rx="3.01" ry="2.52"/><ellipse class="cls-3" cx="1886.72" cy="304.95" rx="3.01" ry="2.52"/></g></g></svg>