<svg id="Layer_1" data-name="Layer 1" xmlns="http://www.w3.org/2000/svg" viewBox="0 0 494.24 692.54"><defs><style>.cls-1{fill:#aa3131;}.cls-2{fill:#fff;}.cls-3{fill:#e6e6e6;}.cls-4{fill:#382a47;}.cls-5{fill:#e74c47;}.cls-6{fill:none;stroke:#000;stroke-miterlimit:10;}</style></defs><title>just-the-rocket</title><path class="cls-1" d="M746.15,626.45a246.88,246.88,0,0,1-9.59,68.33A247.36,247.36,0,0,0,608.87,541.93a442.38,442.38,0,0,0,37.39-113.75A246.28,246.28,0,0,1,746.15,626.45Z" transform="translate(-252.4 -4.05)"/><path class="cls-2" d="M587.3,107.05l1.53,2.5C588.33,108.71,587.82,107.88,587.3,107.05Z" transform="translate(-252.4 -4.05)"/><path class="cls-2" d="M584.17,102.05c.29.45.58.9.86,1.36-.64-1-1.27-2-1.91-3,.34.52.68,1,1,1.58Z" transform="translate(-252.4 -4.05)"/><path class="cls-3" d="M608.87,541.93a453.17,453.17,0,0,1-36.49,61.84c-1.84-.4-3.7-.79-5.56-1.17V584.77H541a238.81,238.81,0,0,0-1.46-65.11A244.77,244.77,0,0,1,608.87,541.93Z" transform="translate(-252.4 -4.05)"/><path class="cls-2" d="M568.08,78.4c-.72-1-1.44-2-2.16-3Z" transform="translate(-252.4 -4.05)"/><path class="cls-4" d="M566.82,602.6v30.64H530.27a239.51,239.51,0,0,0,8.81-35C548.64,599.33,557.92,600.79,566.82,602.6Z" transform="translate(-252.4 -4.05)"/><path class="cls-3" d="M566.82,584.77V602.6c-8.9-1.81-18.18-3.27-27.74-4.35q1.15-6.57,1.95-13.48Z" transform="translate(-252.4 -4.05)"/><path class="cls-2" d="M561.06,69q1.14,1.48,2.28,3Q562.2,70.48,561.06,69Z" transform="translate(-252.4 -4.05)"/><path class="cls-2" d="M559,66.35c.43.53.83,1.06,1.25,1.6Z" transform="translate(-252.4 -4.05)"/><path class="cls-1" d="M499.53,103.76,501.14,6l.3.24.06.06c.19.13.37.29.56.45.39.31.82.66,1.28,1,.23.19.47.38.71.6h0c1.5,1.26,3.32,2.81,5.41,4.65,2.69,2.39,5.83,5.25,9.32,8.61,1.77,1.69,3.64,3.51,5.59,5.46l1.25,1.25,1.82,1.85,1.49,1.54,1.52,1.58.76.79c.64.66,1.29,1.34,1.94,2,.17.17.33.35.5.53L535,38.15l.45.49,1.47,1.6,1.12,1.23c.38.4.75.82,1.13,1.24.95,1.06,1.91,2.13,2.88,3.24.58.65,1.17,1.32,1.74,2s1.07,1.22,1.6,1.85c.13.14.26.3.38.44l1.57,1.84c.61.7,1.21,1.4,1.8,2.13s1.07,1.28,1.62,1.93l.19.24c1.1,1.32,2.19,2.67,3.3,4q2.3,2.84,4.62,5.82a1,1,0,0,1,.09.13l1.25,1.6.81,1q1.14,1.48,2.28,3c.86,1.13,1.72,2.29,2.58,3.45.72,1,1.44,2,2.16,3,1.58,2.17,3.17,4.4,4.77,6.67.68,1,1.35,2,2,2.94s1.55,2.26,2.32,3.4,1.39,2.08,2.09,3.13c.91,1.37,1.81,2.75,2.72,4.15.36.57.74,1.14,1.1,1.72.64,1,1.27,2,1.91,3l1.12,1.79,1.15,1.85c.52.83,1,1.66,1.53,2.5.63,1,1.27,2.09,1.89,3.14A451.26,451.26,0,0,0,499.53,103.76Z" transform="translate(-252.4 -4.05)"/><path class="cls-2" d="M552.07,57.67l2.22,2.73c-1.11-1.36-2.2-2.71-3.3-4C551.36,56.8,551.71,57.24,552.07,57.67Z" transform="translate(-252.4 -4.05)"/><path class="cls-2" d="M550.8,56.13c-.55-.65-1.08-1.3-1.62-1.93C549.72,54.83,550.26,55.48,550.8,56.13Z" transform="translate(-252.4 -4.05)"/><path class="cls-2" d="M547.38,52.07l-1.57-1.84C546.34,50.84,546.86,51.45,547.38,52.07Z" transform="translate(-252.4 -4.05)"/><path class="cls-2" d="M545.43,49.79c-.53-.63-1.06-1.24-1.6-1.85C544.37,48.55,544.9,49.16,545.43,49.79Z" transform="translate(-252.4 -4.05)"/><path class="cls-2" d="M542.09,46c.58.65,1.17,1.32,1.74,2C543.26,47.27,542.67,46.6,542.09,46Z" transform="translate(-252.4 -4.05)"/><path class="cls-1" d="M499.53,584.77H541q-.79,6.91-1.95,13.48a354.46,354.46,0,0,0-39.55-2.18Z" transform="translate(-252.4 -4.05)"/><path class="cls-1" d="M499.53,596.07a354.46,354.46,0,0,1,39.55,2.18,239.51,239.51,0,0,1-8.81,35H499.53Z" transform="translate(-252.4 -4.05)"/><path class="cls-2" d="M538.08,41.47,537,40.24l-1.47-1.6C536.35,39.56,537.21,40.5,538.08,41.47Z" transform="translate(-252.4 -4.05)"/><path class="cls-2" d="M535,38.15l-1.38-1.48c-.17-.18-.33-.36-.5-.53C533.78,36.79,534.4,37.46,535,38.15Z" transform="translate(-252.4 -4.05)"/><path class="cls-2" d="M531.22,34.09l-.76-.79-1.52-1.58Q530.08,32.88,531.22,34.09Z" transform="translate(-252.4 -4.05)"/><path class="cls-1" d="M499.53,633.24h30.74a242.3,242.3,0,0,1-30.74,61.54Z" transform="translate(-252.4 -4.05)"/><path class="cls-4" d="M426.12,276a73.41,73.41,0,1,1,73.41,73.42A73.41,73.41,0,0,1,426.12,276Z" transform="translate(-252.4 -4.05)"/><path class="cls-2" d="M518.79,21.62c-3.49-3.36-6.63-6.22-9.32-8.61,2.09,1.84,4.44,4,7,6.41Z" transform="translate(-252.4 -4.05)"/><path class="cls-1" d="M499.53,516.42a248.11,248.11,0,0,1,40,3.24A238.81,238.81,0,0,1,541,584.77h-41.5Z" transform="translate(-252.4 -4.05)"/><path class="cls-1" d="M539.57,519.66a248.11,248.11,0,0,0-40-3.24V420.2A243.3,243.3,0,0,1,539.57,519.66Z" transform="translate(-252.4 -4.05)"/><path class="cls-2" d="M503.34,7.76c.23.19.46.37.71.6C503.81,8.14,503.57,8,503.34,7.76Z" transform="translate(-252.4 -4.05)"/><path class="cls-2" d="M501.75,6.45a3.56,3.56,0,0,1,.31.26c-.19-.16-.37-.32-.56-.45Z" transform="translate(-252.4 -4.05)"/><path class="cls-2" d="M501.14,6c.09.09.19.16.3.25l-.3-.24Z" transform="translate(-252.4 -4.05)"/><path class="cls-2" d="M501.14,6h0L501,5.84Z" transform="translate(-252.4 -4.05)"/><path class="cls-5" d="M499.53,103.76a451.33,451.33,0,0,0-91.19,8.93c.63-1,1.26-2.1,1.9-3.14l1.52-2.5,1.15-1.85c.37-.59.74-1.19,1.13-1.79.63-1,1.27-2,1.9-3l1.11-1.72c.9-1.4,1.81-2.78,2.71-4.15.7-1.05,1.39-2.1,2.1-3.13s1.55-2.28,2.32-3.4l2-2.94c1.6-2.27,3.19-4.5,4.78-6.67.71-1,1.43-2,2.15-3,.86-1.16,1.72-2.32,2.58-3.45L438,69c.27-.35.54-.71.82-1,.41-.53.82-1.07,1.24-1.6a1,1,0,0,0,.09-.13q2.33-3,4.62-5.82c1.11-1.36,2.21-2.71,3.3-4l.19-.24c.55-.65,1.08-1.3,1.62-1.93s1.19-1.43,1.8-2.13l1.57-1.84c.12-.14.25-.3.38-.44.53-.63,1.06-1.24,1.6-1.85s1.16-1.34,1.74-2c1-1.11,1.93-2.18,2.89-3.24.37-.42.75-.84,1.12-1.24l1.12-1.23,1.47-1.6.45-.49,1.38-1.48c.17-.18.33-.36.5-.53.65-.71,1.31-1.39,1.94-2l.76-.79,1.52-1.58,1.49-1.54,1.82-1.85,1.25-1.25c1.95-1.95,3.82-3.77,5.59-5.46,3.49-3.36,6.63-6.22,9.32-8.61,2.09-1.84,3.91-3.39,5.41-4.65h0c.24-.22.48-.41.71-.6.46-.39.9-.74,1.28-1,.19-.16.38-.32.56-.45l.07-.06.44-.36,1.46-1.15L501,5.84l.15.12Z" transform="translate(-252.4 -4.05)"/><path class="cls-5" d="M499.53,633.24v61.54a242.24,242.24,0,0,1-30.75-61.54Z" transform="translate(-252.4 -4.05)"/><path class="cls-5" d="M499.53,596.07v37.17H468.78a241,241,0,0,1-8.81-35A352.22,352.22,0,0,1,499.53,596.07Z" transform="translate(-252.4 -4.05)"/><path class="cls-5" d="M499.53,584.77v11.3A352.22,352.22,0,0,0,460,598.26c-.76-4.38-1.42-8.87-2-13.49Z" transform="translate(-252.4 -4.05)"/><path class="cls-5" d="M459.48,519.67a247.1,247.1,0,0,1,40-3.25v68.35H458a238.73,238.73,0,0,1,1.46-65.1Z" transform="translate(-252.4 -4.05)"/><path class="cls-5" d="M499.53,516.42a247.1,247.1,0,0,0-40,3.25,243.13,243.13,0,0,1,40-99.47Z" transform="translate(-252.4 -4.05)"/><path class="cls-2" d="M498.07,5.84l-.44.36c.1-.09.2-.16.29-.25Z" transform="translate(-252.4 -4.05)"/><path class="cls-2" d="M497.56,6.26c-.18.13-.37.29-.56.45l.31-.26Z" transform="translate(-252.4 -4.05)"/><path class="cls-2" d="M495.72,7.76c-.23.19-.47.38-.71.6C495.26,8.13,495.49,8,495.72,7.76Z" transform="translate(-252.4 -4.05)"/><path class="cls-2" d="M482.57,19.42c2.58-2.43,4.94-4.57,7-6.41-2.69,2.39-5.83,5.25-9.32,8.61Z" transform="translate(-252.4 -4.05)"/><path class="cls-2" d="M470.12,31.72,468.6,33.3l-.76.79Q469,32.88,470.12,31.72Z" transform="translate(-252.4 -4.05)"/><path class="cls-4" d="M468.78,633.24H432.24V602.6c8.9-1.81,18.17-3.27,27.73-4.34A241,241,0,0,0,468.78,633.24Z" transform="translate(-252.4 -4.05)"/><path class="cls-2" d="M465.9,36.14c-.17.17-.33.35-.5.53L464,38.15C464.66,37.46,465.28,36.79,465.9,36.14Z" transform="translate(-252.4 -4.05)"/><path class="cls-2" d="M463.57,38.64l-1.47,1.6L461,41.47C461.85,40.5,462.71,39.56,463.57,38.64Z" transform="translate(-252.4 -4.05)"/><path class="cls-5" d="M499.53,202.56A73.42,73.42,0,1,0,572.93,276,73.41,73.41,0,0,0,499.53,202.56ZM416.5,276a83,83,0,1,1,83,83A83.13,83.13,0,0,1,416.5,276Z" transform="translate(-252.4 -4.05)"/><path class="cls-3" d="M458,584.77c.53,4.62,1.19,9.11,2,13.49-9.56,1.07-18.83,2.53-27.73,4.34V584.77Z" transform="translate(-252.4 -4.05)"/><path class="cls-3" d="M458,584.77H432.24V602.6q-2.81.57-5.55,1.17a451.13,451.13,0,0,1-36.49-61.84,244.41,244.41,0,0,1,69.28-22.26,238.73,238.73,0,0,0-1.46,65.1Z" transform="translate(-252.4 -4.05)"/><path class="cls-2" d="M457,46c-.58.65-1.16,1.32-1.74,2C455.81,47.27,456.39,46.6,457,46Z" transform="translate(-252.4 -4.05)"/><path class="cls-2" d="M455.23,47.94c-.54.61-1.07,1.22-1.6,1.85C454.16,49.16,454.69,48.55,455.23,47.94Z" transform="translate(-252.4 -4.05)"/><path class="cls-2" d="M453.25,50.23l-1.57,1.84C452.2,51.45,452.72,50.84,453.25,50.23Z" transform="translate(-252.4 -4.05)"/><path class="cls-2" d="M449.88,54.2c-.54.63-1.07,1.28-1.62,1.93C448.8,55.48,449.34,54.83,449.88,54.2Z" transform="translate(-252.4 -4.05)"/><path class="cls-2" d="M447,57.67l1.08-1.3c-1.09,1.32-2.19,2.67-3.3,4Q445.88,59,447,57.67Z" transform="translate(-252.4 -4.05)"/><path class="cls-2" d="M440.06,66.35c-.42.53-.83,1.07-1.24,1.6C439.23,67.41,439.64,66.88,440.06,66.35Z" transform="translate(-252.4 -4.05)"/><path class="cls-2" d="M438,69l-2.28,3Q436.86,70.48,438,69Z" transform="translate(-252.4 -4.05)"/><path class="cls-2" d="M433.14,75.45c-.72,1-1.44,2-2.15,3C431.71,77.4,432.43,76.42,433.14,75.45Z" transform="translate(-252.4 -4.05)"/><path class="cls-4" d="M499.53,113.38a439.34,439.34,0,0,0-89.24,8.74l-8.4,1.74c2.13-3.81,4.29-7.53,6.45-11.17a470.07,470.07,0,0,1,182.38,0q3.25,5.46,6.45,11.17l-8.4-1.74A439.34,439.34,0,0,0,499.53,113.38Z" transform="translate(-252.4 -4.05)"/><path class="cls-2" d="M415.94,100.41c-.63,1-1.27,2-1.9,3,.27-.46.56-.91.85-1.36l0-.06C415.27,101.46,415.6,100.93,415.94,100.41Z" transform="translate(-252.4 -4.05)"/><path class="cls-2" d="M411.76,107.05l-1.52,2.5Z" transform="translate(-252.4 -4.05)"/><path class="cls-3" d="M390.2,541.93a442.59,442.59,0,0,1-37.41-113.76,246.65,246.65,0,0,1,293.47,0,442.38,442.38,0,0,1-37.39,113.75,244.77,244.77,0,0,0-69.3-22.27,243.3,243.3,0,0,0-40-99.46,243.13,243.13,0,0,0-40,99.47A244.41,244.41,0,0,0,390.2,541.93Z" transform="translate(-252.4 -4.05)"/><path class="cls-3" d="M499.53,192.94a83,83,0,1,0,83,83A83.13,83.13,0,0,0,499.53,192.94ZM345.2,344.09c0-73.15,16.55-134.79,38.83-184.64,5.65-12.62,11.66-24.49,17.86-35.59l8.4-1.74a460,460,0,0,1,178.48,0l8.4,1.74c6.2,11.1,12.22,23,17.86,35.59,22.28,49.85,38.83,111.49,38.83,184.64a462,462,0,0,1-7.6,84.09,246.65,246.65,0,0,0-293.47,0A462.71,462.71,0,0,1,345.2,344.09Z" transform="translate(-252.4 -4.05)"/><path class="cls-5" d="M352.79,428.17A442.59,442.59,0,0,0,390.2,541.93,247.29,247.29,0,0,0,262.5,694.78a247,247,0,0,1,90.29-266.61Z" transform="translate(-252.4 -4.05)"/><path class="cls-6" d="M352.79,428.17A247,247,0,0,0,262.5,694.78,247.29,247.29,0,0,1,390.2,541.93" transform="translate(-252.4 -4.05)"/><path class="cls-6" d="M608.87,541.93A247.36,247.36,0,0,1,736.56,694.78a247,247,0,0,0-90.3-266.6" transform="translate(-252.4 -4.05)"/><polyline class="cls-6" points="216.38 629.18 179.83 629.18 179.83 598.55"/><polyline class="cls-6" points="314.41 598.55 314.41 629.18 277.86 629.18"/><path class="cls-6" d="M460,598.26c-9.56,1.07-18.83,2.53-27.73,4.34q-2.81.57-5.55,1.17a451.13,451.13,0,0,1-36.49-61.84,442.59,442.59,0,0,1-37.41-113.76,462.71,462.71,0,0,1-7.59-84.08c0-73.15,16.55-134.79,38.83-184.64,5.65-12.62,11.66-24.49,17.86-35.59" transform="translate(-252.4 -4.05)"/><path class="cls-6" d="M597.17,123.86c6.2,11.1,12.22,23,17.86,35.59,22.28,49.85,38.83,111.49,38.83,184.64a462,462,0,0,1-7.6,84.09,442.38,442.38,0,0,1-37.39,113.75,453.17,453.17,0,0,1-36.49,61.84c-1.84-.4-3.7-.79-5.56-1.17-8.9-1.81-18.18-3.27-27.74-4.35" transform="translate(-252.4 -4.05)"/><path class="cls-6" d="M539.57,519.66A238.81,238.81,0,0,1,541,584.77q-.79,6.91-1.95,13.48a239.51,239.51,0,0,1-8.81,35,242.3,242.3,0,0,1-30.74,61.54A242.62,242.62,0,0,1,460,598.26c-.76-4.38-1.42-8.87-2-13.49a238.73,238.73,0,0,1,1.46-65.1,243.13,243.13,0,0,1,40-99.47A243.3,243.3,0,0,1,539.57,519.66Z" transform="translate(-252.4 -4.05)"/><path class="cls-6" d="M408.34,112.69c-2.16,3.64-4.32,7.36-6.45,11.17l8.4-1.74a460,460,0,0,1,178.48,0l8.4,1.74q-3.2-5.72-6.45-11.17" transform="translate(-252.4 -4.05)"/><path class="cls-6" d="M565.92,75.45l2.16,3" transform="translate(-252.4 -4.05)"/><path class="cls-6" d="M542.09,46c.58.65,1.17,1.32,1.74,2" transform="translate(-252.4 -4.05)"/><path class="cls-6" d="M535.49,38.64c.86.92,1.72,1.86,2.59,2.83" transform="translate(-252.4 -4.05)"/><path class="cls-6" d="M533.16,36.14c.62.65,1.24,1.32,1.88,2" transform="translate(-252.4 -4.05)"/><path class="cls-6" d="M528.94,31.72q1.14,1.16,2.28,2.37" transform="translate(-252.4 -4.05)"/><path class="cls-6" d="M467.84,34.09q1.14-1.22,2.28-2.37" transform="translate(-252.4 -4.05)"/><path class="cls-6" d="M464,38.15c.64-.69,1.26-1.36,1.88-2" transform="translate(-252.4 -4.05)"/><path class="cls-6" d="M461,41.47c.87-1,1.73-1.91,2.59-2.83" transform="translate(-252.4 -4.05)"/><path class="cls-6" d="M455.23,47.94c.58-.67,1.16-1.34,1.74-2" transform="translate(-252.4 -4.05)"/><path class="cls-6" d="M431,78.4c.72-1,1.44-2,2.15-3" transform="translate(-252.4 -4.05)"/><path class="cls-6" d="M590.72,112.69a470.07,470.07,0,0,0-182.38,0c.63-1,1.26-2.1,1.9-3.14l1.52-2.5,1.15-1.85c.37-.59.74-1.19,1.13-1.79s.56-.91.85-1.36l0-.06c.34-.53.67-1.06,1-1.58l1.11-1.72c.9-1.4,1.81-2.78,2.71-4.15.7-1.05,1.39-2.1,2.1-3.13s1.55-2.28,2.32-3.4l2-2.94c1.6-2.27,3.19-4.5,4.78-6.67.71-1,1.43-2,2.15-3,.86-1.16,1.72-2.32,2.58-3.45s1.52-2,2.28-3c.27-.35.54-.71.82-1,.41-.54.82-1.07,1.24-1.6a1,1,0,0,0,.09-.13q2.33-3,4.62-5.82Q445.88,59,447,57.67l1.08-1.3.19-.24c.54-.65,1.08-1.3,1.62-1.93s1.19-1.43,1.8-2.13,1-1.23,1.57-1.84c.12-.14.25-.3.38-.44.53-.63,1.06-1.24,1.6-1.85s1.16-1.34,1.74-2c1-1.11,1.93-2.18,2.89-3.24.37-.42.75-.84,1.12-1.24l1.12-1.23,1.47-1.6.45-.49,1.38-1.48c.17-.18.33-.36.5-.53.65-.71,1.31-1.39,1.94-2l.76-.79,1.52-1.58,1.49-1.54,1.82-1.85,1.25-1.25c1.95-1.95,3.82-3.77,5.59-5.46l2.3-2.2c2.58-2.43,4.94-4.57,7-6.41S493.5,9.62,495,8.36h0c.25-.23.48-.41.71-.6.46-.39.9-.74,1.28-1l.31-.26.25-.19.07-.06c.1-.09.2-.16.29-.25l.15-.11,1.46-1.15L501,5.84l.15.11c.09.09.19.16.3.25l.06.06.25.19a3.56,3.56,0,0,1,.31.26c.39.31.82.66,1.28,1,.23.19.46.37.71.6h0c1.5,1.26,3.32,2.81,5.41,4.65s4.44,4,7,6.41l2.3,2.2c1.77,1.69,3.64,3.51,5.59,5.46l1.25,1.25,1.82,1.85,1.49,1.54,1.52,1.58.76.79c.64.66,1.29,1.34,1.94,2,.17.17.33.35.5.53L535,38.15l.45.49,1.47,1.6,1.12,1.23c.38.4.75.82,1.13,1.24.95,1.06,1.91,2.13,2.88,3.24.58.65,1.17,1.32,1.74,2s1.07,1.22,1.6,1.85c.13.14.26.3.38.44.53.61,1.05,1.22,1.57,1.84s1.21,1.4,1.8,2.13,1.08,1.28,1.62,1.93l.19.24c.37.43.72.87,1.08,1.3l2.22,2.73q2.3,2.84,4.62,5.82a1,1,0,0,1,.09.13c.43.53.83,1.06,1.25,1.6l.81,1q1.14,1.48,2.28,3c.86,1.13,1.72,2.29,2.58,3.45.72,1,1.44,2,2.16,3,1.58,2.17,3.17,4.4,4.77,6.67.68,1,1.35,2,2,2.94s1.55,2.26,2.32,3.4,1.39,2.08,2.09,3.13c.91,1.37,1.81,2.75,2.72,4.15.36.57.74,1.14,1.1,1.72s.68,1,1,1.58l0,.06c.29.45.58.9.86,1.36l1.12,1.79,1.15,1.85,1.53,2.5C589.46,110.59,590.1,111.64,590.72,112.69Z" transform="translate(-252.4 -4.05)"/><path class="cls-6" d="M499.53,359a83,83,0,1,1,83-83A83.14,83.14,0,0,1,499.53,359Z" transform="translate(-252.4 -4.05)"/><path class="cls-6" d="M572.93,276a73.41,73.41,0,1,1-73.4-73.42A73.41,73.41,0,0,1,572.93,276Z" transform="translate(-252.4 -4.05)"/><polyline class="cls-6" points="248.73 1.9 248.73 1.91 247.13 99.71"/><polyline class="cls-6" points="247.13 416.15 247.13 512.37 247.13 580.72 247.13 592.01 247.13 629.18 247.13 690.73"/></svg>