<svg xmlns="http://www.w3.org/2000/svg" xmlns:xlink="http://www.w3.org/1999/xlink" viewBox="0 0 738.73 513.7"><defs><style>.cls-1{isolation:isolate;}.cls-2{fill:#c35870;}.cls-3,.cls-5,.cls-7,.cls-9{mix-blend-mode:soft-light;}.cls-3{fill:url(#White_Black);}.cls-4{fill:#e3aa66;}.cls-5{fill:url(#White_Black-2);}.cls-6{fill:#5a987f;}.cls-7{fill:url(#White_Black-3);}.cls-8{fill:#1a2e48;}.cls-9{fill:url(#White_Black-4);}.cls-10{opacity:0.3;}</style><linearGradient id="White_Black" x1="73.77" y1="6.13" x2="73.77" y2="512.51" gradientUnits="userSpaceOnUse"><stop offset="0" stop-color="#fff"/><stop offset="1"/></linearGradient><linearGradient id="White_Black-2" x1="70.18" y1="3.69" x2="370.93" y2="507.5" xlink:href="#White_Black"/><linearGradient id="White_Black-3" x1="823.52" y1="79.6" x2="820.95" y2="591.13" gradientTransform="translate(1644.47 670.91) rotate(180)" xlink:href="#White_Black"/><linearGradient id="White_Black-4" x1="381.38" y1="498.99" x2="661.56" y2="0.32" xlink:href="#White_Black"/></defs><title>metsli-logo</title><g class="cls-1"><g id="Layer_1" data-name="Layer 1"><g id="space3"><rect class="cls-2" width="147.53" height="513.7"/><rect class="cls-3" width="147.53" height="513.7"/><polygon class="cls-4" points="442.6 513.7 295.07 513.7 0 0 147.53 0 442.6 513.7"/><polygon class="cls-5" points="442.6 513.7 295.07 513.7 0 0 147.53 0 442.6 513.7"/><rect class="cls-6" x="748.47" y="78.6" width="147.53" height="513.7" transform="translate(1487.19 592.31) rotate(-180)"/><rect class="cls-7" x="748.47" y="78.6" width="147.53" height="513.7" transform="translate(1487.19 592.31) rotate(-180)"/><polygon class="cls-8" points="296.13 513.7 443.66 513.7 738.73 0 591.19 0 296.13 513.7"/><polygon class="cls-9" points="296.13 513.7 443.66 513.7 738.73 0 591.19 0 296.13 513.7"/><polygon class="cls-10" points="0 0 147.53 256.85 147.53 311.98 0 0"/><polygon class="cls-10" points="738.73 0 591.19 256.85 591.19 311.98 738.73 0"/><polygon class="cls-10" points="296.13 513.7 369.36 386.2 361.57 372.64 296.13 513.7"/></g></g></g></svg>