<svg xmlns="http://www.w3.org/2000/svg" viewBox="0 0 1920 1080"><defs><style>.cls-1{isolation:isolate;}.cls-2{fill:#051628;}.cls-2,.cls-5{mix-blend-mode:overlay;}.cls-3{fill:#fff;}.cls-4,.cls-5,.cls-6{fill:#fffffa;}.cls-4{opacity:0.1;}.cls-5{opacity:0.42;}.cls-7{fill:#f8f8f5;}</style></defs><title>metsli-bg</title><g class="cls-1"><g id="background"><rect id="Background-2" data-name="Background" class="cls-2" width="1920" height="1080"/><g id="stars"><circle class="cls-3" cx="638.5" cy="395.5" r="5"/><circle class="cls-3" cx="1733" cy="486" r="5"/><circle class="cls-3" cx="1385" cy="52" r="5"/><circle class="cls-3" cx="908" cy="516" r="5"/><circle class="cls-3" cx="918" cy="804" r="5"/><circle class="cls-3" cx="1005" cy="309" r="5"/><circle class="cls-3" cx="643" cy="937" r="5"/><circle class="cls-3" cx="1220" cy="956" r="5"/><circle class="cls-3" cx="1785" cy="961" r="5"/></g></g><g id="glow"><g id="Glow-2" data-name="Glow"><path class="cls-4" d="M1882.62,48.39A675.37,675.37,0,0,0,1828.75,0H988.25a675.3,675.3,0,0,0-53.86,48.38A670.86,670.86,0,0,0,1035.85,1080h745.3a670.54,670.54,0,0,0,101.46-83.38Q1902.19,977,1920,956.05V89Q1902.2,68,1882.62,48.39Z"/><path class="cls-4" d="M1811.9,119.1A568,568,0,0,0,1637.71,0H1179.29a570.64,570.64,0,0,0,107.64,1080h243.14A571.38,571.38,0,0,0,1920,775.32V269.68A567.93,567.93,0,0,0,1811.9,119.1Z"/><path class="cls-5" d="M1408.5,993A470.57,470.57,0,0,1,1225.3,89.06a470.57,470.57,0,0,1,366.4,866.88A467.7,467.7,0,0,1,1408.5,993Z"/><path class="cls-4" d="M1408.5,893a369.64,369.64,0,1,1,144.25-29.16A368.28,368.28,0,0,1,1408.5,893Z"/></g></g><g id="Moon"><g id="moon-2" data-name="moon"><circle id="Moon-3" data-name="Moon" class="cls-6" cx="1408.5" cy="522.5" r="270.5"/><circle class="cls-7" cx="1377" cy="405" r="25"/><circle class="cls-7" cx="1300.5" cy="372.5" r="40.5"/><circle class="cls-7" cx="1375" cy="328" r="22"/></g></g></g></svg>