<svg id="Layer_1" data-name="Layer 1" xmlns="http://www.w3.org/2000/svg" viewBox="0 0 551.64 536.69"><defs><style>.cls-1,.cls-11{fill:none;stroke:#fffaeb;stroke-miterlimit:10;}.cls-1{stroke-width:8px;}.cls-2{fill:#fffaeb;}.cls-3,.cls-9{font-size:116.53px;font-family:SignPainter-HouseScript, SignPainter;}.cls-3,.cls-8{fill:#28235a;}.cls-4{letter-spacing:0em;}.cls-5{letter-spacing:-0.14em;}.cls-6{letter-spacing:-0.09em;}.cls-7{letter-spacing:-0.05em;}.cls-10,.cls-9{fill:#82cdff;}.cls-12{fill:#fa0050;}</style></defs><title>RetroText</title><path class="cls-1" d="M308.25,615.25c-55,0-97.36-44.92-94.13-99.82l19.45-331c3.23-54.91,50.86-98.91,105.85-97.79l309.77,6.32c55,1.12,100.88,47,102,102l6.4,320.35a97.9,97.9,0,0,1-98,100Z" transform="translate(-209.95 -82.57)"/><path class="cls-2" d="M747.37,505.27a97.9,97.9,0,0,1-98,100H318.86c-55,0-97.36-44.92-94.14-99.82L243,194.57c3.23-54.9,50.86-98.91,105.85-97.79l290.55,5.93c55,1.12,100.87,47,102,102Z" transform="translate(-209.95 -82.57)"/><text class="cls-3" transform="matrix(1, -0.18, 0, 1, 76.78, 190.38)"><tspan class="cls-4">C</tspan><tspan x="53.25" y="0">a</tspan><tspan class="cls-5" x="100.68" y="0">n</tspan><tspan class="cls-6" x="129.11" y="0">’</tspan><tspan x="145.43" y="0">t </tspan><tspan class="cls-7" x="196" y="0">W</tspan><tspan x="263" y="0">ait</tspan></text><path class="cls-8" d="M406.47,305.14c-25.7.84-56.6,1.87-83.38,3.32-7.45.1-11.35-.89-13.1-4.45-5.14-10.31,7.7-18.46,53.1-26.77,69.7-12.89,193.09-31.93,301.8-57.27,5.66-1.38,9.92-.59,10.53,2.25,1.5,6.44-5.77,14.18-37.95,23.68-33,9.53-154.11,33.64-241.49,48.77C422.77,302.78,414.28,304.84,406.47,305.14Z" transform="translate(-209.95 -82.57)"/><text class="cls-3" transform="matrix(1, -0.18, 0, 1, 77.78, 189.38)"><tspan class="cls-4">C</tspan><tspan x="53.25" y="0">a</tspan><tspan class="cls-5" x="100.68" y="0">n</tspan><tspan class="cls-6" x="129.11" y="0">’</tspan><tspan x="145.43" y="0">t </tspan><tspan class="cls-7" x="196" y="0">W</tspan><tspan x="263" y="0">ait</tspan></text><path class="cls-8" d="M407.47,304.14c-25.7.84-56.6,1.87-83.38,3.32-7.45.1-11.35-.89-13.1-4.45-5.14-10.31,7.7-18.46,53.1-26.77,69.7-12.89,193.09-31.93,301.8-57.27,5.66-1.38,9.92-.59,10.53,2.25,1.5,6.44-5.77,14.18-37.95,23.68-33,9.53-154.11,33.64-241.49,48.77C423.77,301.78,415.28,303.84,407.47,304.14Z" transform="translate(-209.95 -82.57)"/><text class="cls-3" transform="matrix(1, -0.18, 0, 1, 78.78, 188.38)"><tspan class="cls-4">C</tspan><tspan x="53.25" y="0">a</tspan><tspan class="cls-5" x="100.68" y="0">n</tspan><tspan class="cls-6" x="129.11" y="0">’</tspan><tspan x="145.43" y="0">t </tspan><tspan class="cls-7" x="196" y="0">W</tspan><tspan x="263" y="0">ait</tspan></text><path class="cls-8" d="M408.47,303.14c-25.7.84-56.6,1.87-83.38,3.32-7.45.1-11.35-.89-13.1-4.45-5.14-10.31,7.7-18.46,53.1-26.77,69.7-12.89,193.09-31.93,301.8-57.27,5.66-1.38,9.92-.59,10.53,2.25,1.5,6.44-5.77,14.18-37.95,23.68-33,9.53-154.11,33.64-241.49,48.77C424.77,300.78,416.28,302.84,408.47,303.14Z" transform="translate(-209.95 -82.57)"/><text class="cls-3" transform="matrix(1, -0.18, 0, 1, 79.78, 187.38)"><tspan class="cls-4">C</tspan><tspan x="53.25" y="0">a</tspan><tspan class="cls-5" x="100.68" y="0">n</tspan><tspan class="cls-6" x="129.11" y="0">’</tspan><tspan x="145.43" y="0">t </tspan><tspan class="cls-7" x="196" y="0">W</tspan><tspan x="263" y="0">ait</tspan></text><path class="cls-8" d="M409.47,302.14c-25.7.84-56.6,1.87-83.38,3.32-7.45.1-11.35-.89-13.1-4.45-5.14-10.31,7.7-18.46,53.1-26.77,69.7-12.89,193.09-31.93,301.8-57.27,5.66-1.38,9.92-.59,10.53,2.25,1.5,6.44-5.77,14.18-37.95,23.68-33,9.53-154.11,33.64-241.49,48.77C425.77,299.78,417.28,301.84,409.47,302.14Z" transform="translate(-209.95 -82.57)"/><text class="cls-3" transform="matrix(1, -0.18, 0, 1, 80.78, 186.38)"><tspan class="cls-4">C</tspan><tspan x="53.25" y="0">a</tspan><tspan class="cls-5" x="100.68" y="0">n</tspan><tspan class="cls-6" x="129.11" y="0">’</tspan><tspan x="145.43" y="0">t </tspan><tspan class="cls-7" x="196" y="0">W</tspan><tspan x="263" y="0">ait</tspan></text><path class="cls-8" d="M410.47,301.14c-25.7.84-56.6,1.87-83.38,3.32-7.45.1-11.35-.89-13.1-4.45-5.14-10.31,7.7-18.46,53.1-26.77,69.7-12.89,193.09-31.93,301.8-57.27,5.66-1.38,9.92-.59,10.53,2.25,1.5,6.44-5.77,14.18-37.95,23.68-33,9.53-154.11,33.64-241.49,48.77C426.77,298.78,418.28,300.84,410.47,301.14Z" transform="translate(-209.95 -82.57)"/><text class="cls-3" transform="matrix(1, -0.18, 0, 1, 81.78, 185.38)"><tspan class="cls-4">C</tspan><tspan x="53.25" y="0">a</tspan><tspan class="cls-5" x="100.68" y="0">n</tspan><tspan class="cls-6" x="129.11" y="0">’</tspan><tspan x="145.43" y="0">t </tspan><tspan class="cls-7" x="196" y="0">W</tspan><tspan x="263" y="0">ait</tspan></text><path class="cls-8" d="M411.47,300.14c-25.7.84-56.6,1.87-83.38,3.32-7.45.1-11.35-.89-13.1-4.45-5.14-10.31,7.7-18.46,53.1-26.77,69.7-12.89,193.09-31.93,301.8-57.27,5.66-1.38,9.92-.59,10.53,2.25,1.5,6.44-5.77,14.18-37.95,23.68-33,9.53-154.11,33.64-241.49,48.77C427.77,297.78,419.28,299.84,411.47,300.14Z" transform="translate(-209.95 -82.57)"/><text class="cls-3" transform="matrix(1, -0.18, 0, 1, 82.78, 184.38)"><tspan class="cls-4">C</tspan><tspan x="53.25" y="0">a</tspan><tspan class="cls-5" x="100.68" y="0">n</tspan><tspan class="cls-6" x="129.11" y="0">’</tspan><tspan x="145.43" y="0">t </tspan><tspan class="cls-7" x="196" y="0">W</tspan><tspan x="263" y="0">ait</tspan></text><path class="cls-8" d="M412.47,299.14c-25.7.84-56.6,1.87-83.38,3.32-7.45.1-11.35-.89-13.1-4.45-5.14-10.31,7.7-18.46,53.1-26.77,69.7-12.89,193.09-31.93,301.8-57.27,5.66-1.38,9.92-.59,10.53,2.25,1.5,6.44-5.77,14.18-37.95,23.68-33,9.53-154.11,33.64-241.49,48.77C428.77,296.78,420.28,298.84,412.47,299.14Z" transform="translate(-209.95 -82.57)"/><text class="cls-3" transform="matrix(1, -0.18, 0, 1, 83.78, 183.38)"><tspan class="cls-4">C</tspan><tspan x="53.25" y="0">a</tspan><tspan class="cls-5" x="100.68" y="0">n</tspan><tspan class="cls-6" x="129.11" y="0">’</tspan><tspan x="145.43" y="0">t </tspan><tspan class="cls-7" x="196" y="0">W</tspan><tspan x="263" y="0">ait</tspan></text><path class="cls-8" d="M413.47,298.14c-25.7.84-56.6,1.87-83.38,3.32-7.45.1-11.35-.89-13.1-4.45-5.14-10.31,7.7-18.46,53.1-26.77,69.7-12.89,193.09-31.93,301.8-57.27,5.66-1.38,9.92-.59,10.53,2.25,1.5,6.44-5.77,14.18-37.95,23.68-33,9.53-154.11,33.64-241.49,48.77C429.77,295.78,421.28,297.84,413.47,298.14Z" transform="translate(-209.95 -82.57)"/><text class="cls-3" transform="matrix(1, -0.18, 0, 1, 84.78, 182.38)"><tspan class="cls-4">C</tspan><tspan x="53.25" y="0">a</tspan><tspan class="cls-5" x="100.68" y="0">n</tspan><tspan class="cls-6" x="129.11" y="0">’</tspan><tspan x="145.43" y="0">t </tspan><tspan class="cls-7" x="196" y="0">W</tspan><tspan x="263" y="0">ait</tspan></text><path class="cls-8" d="M414.47,297.14c-25.7.84-56.6,1.87-83.38,3.32-7.45.1-11.35-.89-13.1-4.45-5.14-10.31,7.7-18.46,53.1-26.77,69.7-12.89,193.09-31.93,301.8-57.27,5.66-1.38,9.92-.59,10.53,2.25,1.5,6.44-5.77,14.18-37.95,23.68-33,9.53-154.11,33.64-241.49,48.77C430.77,294.78,422.28,296.84,414.47,297.14Z" transform="translate(-209.95 -82.57)"/><text class="cls-3" transform="matrix(1, -0.18, 0, 1, 85.78, 181.38)"><tspan class="cls-4">C</tspan><tspan x="53.25" y="0">a</tspan><tspan class="cls-5" x="100.68" y="0">n</tspan><tspan class="cls-6" x="129.11" y="0">’</tspan><tspan x="145.43" y="0">t </tspan><tspan class="cls-7" x="196" y="0">W</tspan><tspan x="263" y="0">ait</tspan></text><path class="cls-8" d="M415.47,296.14c-25.7.84-56.6,1.87-83.38,3.32-7.45.1-11.35-.89-13.1-4.45-5.14-10.31,7.7-18.46,53.1-26.77,69.7-12.89,193.09-31.93,301.8-57.27,5.66-1.38,9.92-.59,10.53,2.25,1.5,6.44-5.77,14.18-37.95,23.68-33,9.53-154.11,33.64-241.49,48.77C431.77,293.78,423.28,295.84,415.47,296.14Z" transform="translate(-209.95 -82.57)"/><text class="cls-3" transform="matrix(1, -0.18, 0, 1, 86.78, 180.38)"><tspan class="cls-4">C</tspan><tspan x="53.25" y="0">a</tspan><tspan class="cls-5" x="100.68" y="0">n</tspan><tspan class="cls-6" x="129.11" y="0">’</tspan><tspan x="145.43" y="0">t </tspan><tspan class="cls-7" x="196" y="0">W</tspan><tspan x="263" y="0">ait</tspan></text><path class="cls-8" d="M416.47,295.14c-25.7.84-56.6,1.87-83.38,3.32-7.45.1-11.35-.89-13.1-4.45-5.14-10.31,7.7-18.46,53.1-26.77,69.7-12.89,193.09-31.93,301.8-57.27,5.66-1.38,9.92-.59,10.53,2.25,1.5,6.44-5.77,14.18-37.95,23.68-33,9.53-154.11,33.64-241.49,48.77C432.77,292.78,424.28,294.84,416.47,295.14Z" transform="translate(-209.95 -82.57)"/><text class="cls-9" transform="matrix(1, -0.18, 0, 1, 86.78, 180.38)"><tspan class="cls-4">C</tspan><tspan x="53.25" y="0">a</tspan><tspan class="cls-5" x="100.68" y="0">n</tspan><tspan class="cls-6" x="129.11" y="0">’</tspan><tspan x="145.43" y="0">t </tspan><tspan class="cls-7" x="196" y="0">W</tspan><tspan x="263" y="0">ait</tspan></text><path class="cls-10" d="M416.47,295.14c-25.7.84-56.6,1.87-83.38,3.32-7.45.1-11.35-.89-13.1-4.45-5.14-10.31,7.7-18.46,53.1-26.77,69.7-12.89,193.09-31.93,301.8-57.27,5.66-1.38,9.92-.59,10.53,2.25,1.5,6.44-5.77,14.18-37.95,23.68-33,9.53-154.11,33.64-241.49,48.77C432.77,292.78,424.28,294.84,416.47,295.14Z" transform="translate(-209.95 -82.57)"/><path class="cls-11" d="M344.39,230.78c-.58-1.42-1.87-1.19-2.45.19-8.86,18.93-21.21,28.91-28.67,24.17-5.71-3.65-6.87-20.69,3.38-39.52,10.49-19.21,28.2-31.77,31.47-28.85,2.68,2.32-1.52,9.71-3.38,16.21-1.75,6.13.11,9.42,2.8,10.69a1.7,1.7,0,0,0,2.56-1.15c1.28-3.6,2.91-8.44,4.66-12.36s2.1-7.24,1.05-10.44c-.93-2.74-3.61-5.65-6.18-7.41-3.73-2.61-9.44-1.14-15.73,2.42-13,7.31-33.79,32.06-33.33,56.69.23,9.51,4.78,15.93,10,17.81,6.3,2.27,16.09.66,24.36-6.75C339.84,248.12,347.3,238.07,344.39,230.78Z" transform="translate(-209.95 -82.57)"/><path class="cls-11" d="M359.54,253.51c5.59-1,10.83-6.22,14.56-11.66,0,5.48,3.27,8.63,9.56,7.87,3.42-.42,7.11-2.82,10.27-6a5.79,5.79,0,0,0,1.85,2.84c1,.86,1.74.27,2.21-.86,5-11.84,10.14-23.93,17-32.6,7.46-9.47,14.22-13.93,15.39-13.67,2.09.57-8.16,14.73-12,26.83C415,237,417.33,243.78,427.24,242c5.64-1,11.68-6.21,15.35-12,1.25,5.34,5.36,7.87,10.05,7.19,9.32-1.3,17-12.91,18.53-16.55,1.17-2.89,1.75-5.09,1.17-6.85-.47-1.55-1.75-1.09-2.45.43-4.31,9.5-11,18.95-16.2,19.64-4.89.63-6.18-6.37-2.33-15.56,4.43-10.57,11.07-23,15.62-31.65a37.13,37.13,0,0,1,9.08-2.07c1.75-.31,2.22-1.2,1.4-2.46s-2.68-3.14-7.22-2.22c2.8-6.55,2.8-10.4,1.51-13.44-.58-1.29-1.75-1.2-2.79.5-2,2.91-5.25,9-8.86,16a72.29,72.29,0,0,1-9.67,2.17c-1.75.19-2.45,1.13-1.29,2.56.94,1.11,3.62,2.39,7.58,1.69-5,10.09-9.91,20.74-12.35,27a34,34,0,0,0-1.32,4.06c-4.35,8.57-9.81,16.67-14.41,17.71-4.2,1-4.9-4.38-1.87-11.68,2.68-6.53,8.39-16.16,10.84-21.72,2.91-6.57-.7-11.64-4.54-11.55s-11.77,7.9-17,14.42c1.28-4.42,1.4-8.4-.35-11-.7-1-1.63-1-2.45.43-7.34,12.14-16.31,29.92-18.64,37.67-.28.91-.49,1.77-.66,2.57-3.21,4.67-6.7,8.26-9.59,8.91-4,.93-3.85-4.1-.93-11.14,2.79-6.67,8.62-16.44,11.18-22.13,2.8-6.32,1.87-11.17.12-13-.82-.9-1.75-.51-2.8,1.19-1.28,2.1-2.68,4.79-4.19,7.85.23-4.58-2.1-8-7.11-7.13-5.83,1-15,7.89-24.47,23.31C346.48,241,348.7,255.42,359.54,253.51Zm4.42-25c6.41-11.5,14.92-20.58,18.65-20.88,3.38-.25,2.33,7.16-5,21.27-6,11.31-12,19.83-16.78,20.56C356.27,250.12,357.79,239.6,364,228.49Z" transform="translate(-209.95 -82.57)"/><path class="cls-11" d="M442.74,187.56c.81,0,1.74-.42,3-2.16,3.14-4.28,8.62-12.94,11.3-17.73,1.28-2.32,2.33-5.18,1.51-7.25-.46-1.2-1.39-1.51-2.91.39-4,5.13-10.72,18.56-13.4,24.74C441.8,186.8,442,187.57,442.74,187.56Z" transform="translate(-209.95 -82.57)"/><path class="cls-11" d="M501.35,228.62c1.51,1,2.68.23,3.49-1.2,9.91-17.48,23.43-38.85,33.91-54.46-3.84,11.64-7.8,25.15-9.67,34.11-1.75,8.58-.35,12.53,3.61,15.44,1.52,1.13,2.57.36,3.5-1.2,14.1-24.16,31.35-48.64,39.86-61.33,5.94-8.86,7.45-14.13,6.75-18.09-.23-1.59-1.39-1.62-2.79,0-10.26,12.76-32.87,46.7-44.63,68,4.42-17.68,9.32-32.76,13-44.37,2.91-9.37,2.33-12.18,0-15.15-.93-1.23-2.1-.68-2.92.4-12,16.68-30,44.32-40.78,63.94,5-17.43,10.72-33.59,14.56-44.75,3.38-9.57,3.15-13.73,1.17-16.76-.82-1.25-2-.93-2.91,1-5.72,12-15.15,40.43-19.35,58.88C496.34,221.46,497.27,225.73,501.35,228.62Z" transform="translate(-209.95 -82.57)"/><path class="cls-11" d="M565.9,188.22c-9.67,15.81-7.45,30.22,3.38,28.31,5.6-1,10.84-6.23,14.57-11.66,0,5.47,3.26,8.63,9.56,7.87,4.42-.54,9.3-4.39,12.89-9,.92,3.75,3.81,5.71,8.9,4.82,5.64-1,11.89-5.76,15.73-12.1,1.14,5.57,5.34,8.23,10.13,7.53,9.33-1.29,17-12.9,18.53-16.55,1.17-2.88,1.75-5.08,1.17-6.85-.47-1.54-1.75-1.08-2.45.44-4.31,9.5-10.95,18.94-16.2,19.63-4.89.63-6.17-6.37-2.33-15.55,4.43-10.57,11.07-23,15.62-31.65a37.1,37.1,0,0,1,9.09-2.07c1.75-.31,2.21-1.21,1.39-2.46s-2.67-3.14-7.22-2.23c2.8-6.55,2.8-10.39,1.52-13.43-.59-1.3-1.75-1.21-2.8.49-2,2.92-5.25,9-8.86,16a70.47,70.47,0,0,1-9.67,2.18c-1.75.19-2.45,1.13-1.28,2.55.93,1.12,3.61,2.39,7.57,1.7-5,10.09-9.9,20.74-12.35,27-.35.89-.65,1.75-.91,2.59a2.41,2.41,0,0,0-.37.54C628,195,621.6,203.8,616.36,205c-3.73.89-4-3.61-1.16-10.86,2.44-6.26,7.34-15,9.78-20.61,2.8-6.32,1.87-11.16.12-12.72-.93-.89-1.75-.39-2.8,1.19-4.31,6.82-12,21.93-14.91,30.95-.3.93-.54,1.83-.75,2.71-3.88,6.82-8.72,12.76-12.54,13.61s-3.84-4.09-.93-11.13c2.8-6.67,8.63-16.44,11.19-22.14,2.8-6.32,1.86-11.16.12-13q-1.23-1.37-2.8,1.19c-1.28,2.09-2.68,4.78-4.2,7.85.24-4.59-2.09-8-7.1-7.14C584.55,165.94,575.34,172.81,565.9,188.22Zm26.46-17.6c3.38-.24,2.33,7.17-5,21.28-6,11.3-12,19.83-16.79,20.55-4.54.69-3-9.83,3.15-20.94C580.12,180,588.63,170.93,592.36,170.62Z" transform="translate(-209.95 -82.57)"/><path class="cls-11" d="M633.38,157.91a7.43,7.43,0,0,0,.81-7.95c-1.51-2.88-4.89-3.68-6.76-1.37a7.48,7.48,0,0,0-.58,8.72A4,4,0,0,0,633.38,157.91Z" transform="translate(-209.95 -82.57)"/><path class="cls-11" d="M685.42,212.22c-.61-2.84-4.87-3.63-10.53-2.25-108.71,25.34-232.1,44.38-301.8,57.27-45.4,8.31-58.24,16.46-53.1,26.77,1.75,3.56,5.65,4.55,13.1,4.45,26.78-1.45,57.68-2.48,83.38-3.32,7.81-.3,16.3-2.36-10.49-10.47,87.38-15.13,208.45-39.24,241.49-48.77C679.65,226.4,686.92,218.66,685.42,212.22Z" transform="translate(-209.95 -82.57)"/><path class="cls-10" d="M622.39,281H606.2v-6.66h39.36V281H629.29v54.41h-6.9Z" transform="translate(-209.95 -82.57)"/><path class="cls-10" d="M694.73,304.23c0,21-11.11,32.14-24.66,32.14-14.1,0-23.9-12.54-23.9-31,0-19.35,10.43-32.07,24.62-32.07C685.31,273.31,694.73,286.09,694.73,304.23Zm-41.3,1c0,13.06,6.18,24.76,17,24.76s17-11.51,17-25.38c0-12.16-5.52-24.85-16.94-24.85S653.43,291.84,653.43,305.2Z" transform="translate(-209.95 -82.57)"/><path class="cls-10" d="M623.39,280H607.2v-6.66h39.36V280H630.29v54.41h-6.9Z" transform="translate(-209.95 -82.57)"/><path class="cls-10" d="M695.73,303.23c0,21-11.11,32.14-24.66,32.14-14.1,0-23.9-12.54-23.9-31,0-19.35,10.43-32.07,24.62-32.07C686.31,272.31,695.73,285.09,695.73,303.23Zm-41.3,1c0,13.06,6.18,24.76,17,24.76s17-11.51,17-25.38c0-12.16-5.52-24.85-16.94-24.85S654.43,290.84,654.43,304.2Z" transform="translate(-209.95 -82.57)"/><path class="cls-10" d="M624.39,279H608.2v-6.66h39.36V279H631.29v54.41h-6.9Z" transform="translate(-209.95 -82.57)"/><path class="cls-10" d="M696.73,302.23c0,21-11.11,32.14-24.66,32.14-14.1,0-23.9-12.54-23.9-31,0-19.35,10.43-32.07,24.62-32.07C687.31,271.31,696.73,284.09,696.73,302.23Zm-41.3,1c0,13.06,6.18,24.76,17,24.76s17-11.51,17-25.38c0-12.16-5.52-24.85-16.94-24.85S655.43,289.84,655.43,303.2Z" transform="translate(-209.95 -82.57)"/><path class="cls-10" d="M625.39,278H609.2v-6.66h39.36V278H632.29v54.41h-6.9Z" transform="translate(-209.95 -82.57)"/><path class="cls-10" d="M697.73,301.23c0,21-11.11,32.14-24.66,32.14-14.1,0-23.9-12.54-23.9-31,0-19.35,10.43-32.07,24.62-32.07C688.31,270.31,697.73,283.09,697.73,301.23Zm-41.3,1c0,13.06,6.18,24.76,17,24.76s17-11.51,17-25.38c0-12.16-5.52-24.85-16.94-24.85S656.43,288.84,656.43,302.2Z" transform="translate(-209.95 -82.57)"/><path class="cls-10" d="M626.39,277H610.2v-6.66h39.36V277H633.29v54.41h-6.9Z" transform="translate(-209.95 -82.57)"/><path class="cls-10" d="M698.73,300.23c0,21-11.11,32.14-24.66,32.14-14.1,0-23.9-12.54-23.9-31,0-19.35,10.43-32.07,24.62-32.07C689.31,269.31,698.73,282.09,698.73,300.23Zm-41.3,1c0,13.06,6.18,24.76,17,24.76s17-11.51,17-25.38c0-12.16-5.52-24.85-16.94-24.85S657.43,287.84,657.43,301.2Z" transform="translate(-209.95 -82.57)"/><path class="cls-2" d="M624.39,279H608.2v-6.66h39.36V279H631.29v54.41h-6.9Z" transform="translate(-209.95 -82.57)"/><path class="cls-2" d="M696.73,302.23c0,21-11.11,32.14-24.66,32.14-14.1,0-23.9-12.54-23.9-31,0-19.35,10.43-32.07,24.62-32.07C687.31,271.31,696.73,284.09,696.73,302.23Zm-41.3,1c0,13.06,6.18,24.76,17,24.76s17-11.51,17-25.38c0-12.16-5.52-24.85-16.94-24.85S655.43,289.84,655.43,303.2Z" transform="translate(-209.95 -82.57)"/><path class="cls-2" d="M625.39,278H609.2v-6.66h39.36V278H632.29v54.41h-6.9Z" transform="translate(-209.95 -82.57)"/><path class="cls-2" d="M697.73,301.23c0,21-11.11,32.14-24.66,32.14-14.1,0-23.9-12.54-23.9-31,0-19.35,10.43-32.07,24.62-32.07C688.31,270.31,697.73,283.09,697.73,301.23Zm-41.3,1c0,13.06,6.18,24.76,17,24.76s17-11.51,17-25.38c0-12.16-5.52-24.85-16.94-24.85S656.43,288.84,656.43,302.2Z" transform="translate(-209.95 -82.57)"/><path class="cls-2" d="M626.39,277H610.2v-6.66h39.36V277H633.29v54.41h-6.9Z" transform="translate(-209.95 -82.57)"/><path class="cls-2" d="M698.73,300.23c0,21-11.11,32.14-24.66,32.14-14.1,0-23.9-12.54-23.9-31,0-19.35,10.43-32.07,24.62-32.07C689.31,269.31,698.73,282.09,698.73,300.23Zm-41.3,1c0,13.06,6.18,24.76,17,24.76s17-11.51,17-25.38c0-12.16-5.52-24.85-16.94-24.85S657.43,287.84,657.43,301.2Z" transform="translate(-209.95 -82.57)"/><path class="cls-8" d="M626.39,277H610.2v-6.66h39.36V277H633.29v54.41h-6.9Z" transform="translate(-209.95 -82.57)"/><path class="cls-8" d="M698.73,300.23c0,21-11.11,32.14-24.66,32.14-14.1,0-23.9-12.54-23.9-31,0-19.35,10.43-32.07,24.62-32.07C689.31,269.31,698.73,282.09,698.73,300.23Zm-41.3,1c0,13.06,6.18,24.76,17,24.76s17-11.51,17-25.38c0-12.16-5.52-24.85-16.94-24.85S657.43,287.84,657.43,301.2Z" transform="translate(-209.95 -82.57)"/><path class="cls-8" d="M264.57,508.1l-23.83-146h12.87l11.2,73.9c2.71,18.26,5.22,36.34,6.9,50.48H272c1.53-14.5,4.48-31.92,7.65-50.7l12.63-73.68H304.9l11.49,74c2.62,17.49,5.15,34.7,6.6,50.08h.3c1.88-16,4.49-32.27,7.42-50.44l12.43-73.64h12.47l-26.68,146H316.25l-11.84-76c-3-18.81-4.94-33-6.21-47.76h-.28c-1.56,14.64-3.75,28.84-7.24,47.73l-13.31,76Z" transform="translate(-209.95 -82.57)"/><path class="cls-8" d="M447.7,433.62c0,50.11-19.66,76.86-43.63,76.86-24.94,0-42.27-30-42.27-74.11,0-46.27,18.44-76.68,43.54-76.68C431,359.69,447.7,390.24,447.7,433.62Zm-73.05,2.31c0,31.25,10.92,59.21,30.08,59.21s30.12-27.51,30.12-60.69c0-29.07-9.76-59.42-30-59.42S374.65,404,374.65,435.93Z" transform="translate(-209.95 -82.57)"/><path class="cls-8" d="M463.35,364.08a84,84,0,0,1,23.35-3.14c12.89,0,21.39,3.8,27.25,12,4.64,6.4,7.37,16.34,7.37,27.76,0,19.19-7.88,31.94-17.72,37.21v.53c7.17,3.91,11.51,14.44,13.79,29.57,3.09,20.41,5.32,34.37,7.23,40.08H512c-1.48-4.22-3.61-16.67-6.18-35-2.79-20-7.88-27.75-18.88-28.32H475.48V508.1H463.35Zm12.13,66.47h12.41c13,0,21.23-11,21.23-27.73,0-19-8.81-27.21-21.62-27.24-5.89,0-10,.84-12,1.66Z" transform="translate(-209.95 -82.57)"/><path class="cls-8" d="M538.45,362.07h12.13v70.39H551c2.47-5.66,5.07-10.76,7.42-15.52l28.73-54.87h15l-34,62.07,36.7,84H590.5l-30.89-71.62-9,16V508.1H538.45Z" transform="translate(-209.95 -82.57)"/><path class="cls-8" d="M265.57,507.1l-23.83-146h12.87l11.2,73.9c2.71,18.26,5.22,36.34,6.9,50.48H273c1.53-14.5,4.48-31.92,7.65-50.7l12.63-73.68H305.9l11.49,74c2.62,17.49,5.15,34.7,6.6,50.08h.3c1.88-16,4.49-32.27,7.42-50.44l12.43-73.64h12.47l-26.68,146H317.25l-11.84-76c-3-18.81-4.94-33-6.21-47.76h-.28c-1.56,14.64-3.75,28.84-7.24,47.73l-13.31,76Z" transform="translate(-209.95 -82.57)"/><path class="cls-8" d="M448.7,432.62c0,50.11-19.66,76.86-43.63,76.86-24.94,0-42.27-30-42.27-74.11,0-46.27,18.44-76.68,43.54-76.68C432,358.69,448.7,389.24,448.7,432.62Zm-73.05,2.31c0,31.25,10.92,59.21,30.08,59.21s30.12-27.51,30.12-60.69c0-29.07-9.76-59.42-30-59.42S375.65,403,375.65,434.93Z" transform="translate(-209.95 -82.57)"/><path class="cls-8" d="M464.35,363.08a84,84,0,0,1,23.35-3.14c12.89,0,21.39,3.8,27.25,12,4.64,6.4,7.37,16.34,7.37,27.76,0,19.19-7.88,31.94-17.72,37.21v.53c7.17,3.91,11.51,14.44,13.79,29.57,3.09,20.41,5.32,34.37,7.23,40.08H513c-1.48-4.22-3.61-16.67-6.18-35-2.79-20-7.88-27.75-18.88-28.32H476.48V507.1H464.35Zm12.13,66.47h12.41c13,0,21.23-11,21.23-27.73,0-19-8.81-27.21-21.62-27.24-5.89,0-10,.84-12,1.66Z" transform="translate(-209.95 -82.57)"/><path class="cls-8" d="M539.45,361.07h12.13v70.39H552c2.47-5.66,5.07-10.76,7.42-15.52l28.73-54.87h15l-34,62.07,36.7,84H591.5l-30.89-71.62-9,16V507.1H539.45Z" transform="translate(-209.95 -82.57)"/><path class="cls-8" d="M266.57,506.1l-23.83-146h12.87l11.2,73.9c2.71,18.26,5.22,36.34,6.9,50.48H274c1.53-14.5,4.48-31.92,7.65-50.7l12.63-73.68H306.9l11.49,74c2.62,17.49,5.15,34.7,6.6,50.08h.3c1.88-16,4.49-32.27,7.42-50.44l12.43-73.64h12.47l-26.68,146H318.25l-11.84-76c-3-18.81-4.94-33-6.21-47.76h-.28c-1.56,14.64-3.75,28.84-7.24,47.73l-13.31,76Z" transform="translate(-209.95 -82.57)"/><path class="cls-8" d="M449.7,431.62c0,50.11-19.66,76.86-43.63,76.86-24.94,0-42.27-30-42.27-74.11,0-46.27,18.44-76.68,43.54-76.68C433,357.69,449.7,388.24,449.7,431.62Zm-73.05,2.31c0,31.25,10.92,59.21,30.08,59.21s30.12-27.51,30.12-60.69c0-29.07-9.76-59.42-30-59.42S376.65,402,376.65,433.93Z" transform="translate(-209.95 -82.57)"/><path class="cls-8" d="M465.35,362.08a84,84,0,0,1,23.35-3.14c12.89,0,21.39,3.8,27.25,12,4.64,6.4,7.37,16.34,7.37,27.76,0,19.19-7.88,31.94-17.72,37.21v.53c7.17,3.91,11.51,14.44,13.79,29.57,3.09,20.41,5.32,34.37,7.23,40.08H514c-1.48-4.22-3.61-16.67-6.18-35-2.79-20-7.88-27.75-18.88-28.32H477.48V506.1H465.35Zm12.13,66.47h12.41c13,0,21.23-11,21.23-27.73,0-19-8.81-27.21-21.62-27.24-5.89,0-10,.84-12,1.66Z" transform="translate(-209.95 -82.57)"/><path class="cls-8" d="M540.45,360.07h12.13v70.39H553c2.47-5.66,5.07-10.76,7.42-15.52l28.73-54.87h15l-34,62.07,36.7,84H592.5l-30.89-71.62-9,16V506.1H540.45Z" transform="translate(-209.95 -82.57)"/><path class="cls-8" d="M267.57,505.1l-23.83-146h12.87l11.2,73.9c2.71,18.26,5.22,36.34,6.9,50.48H275c1.53-14.5,4.48-31.92,7.65-50.7l12.63-73.68H307.9l11.49,74c2.62,17.49,5.15,34.7,6.6,50.08h.3c1.88-16,4.49-32.27,7.42-50.44l12.43-73.64h12.47l-26.68,146H319.25l-11.84-76c-3-18.81-4.94-33-6.21-47.76h-.28c-1.56,14.64-3.75,28.84-7.24,47.73l-13.31,76Z" transform="translate(-209.95 -82.57)"/><path class="cls-8" d="M450.7,430.62c0,50.11-19.66,76.86-43.63,76.86-24.94,0-42.27-30-42.27-74.11,0-46.27,18.44-76.68,43.54-76.68C434,356.69,450.7,387.24,450.7,430.62Zm-73.05,2.31c0,31.25,10.92,59.21,30.08,59.21s30.12-27.51,30.12-60.69c0-29.07-9.76-59.42-30-59.42S377.65,401,377.65,432.93Z" transform="translate(-209.95 -82.57)"/><path class="cls-8" d="M466.35,361.08a84,84,0,0,1,23.35-3.14c12.89,0,21.39,3.8,27.25,12,4.64,6.4,7.37,16.34,7.37,27.76,0,19.19-7.88,31.94-17.72,37.21v.53c7.17,3.91,11.51,14.44,13.79,29.57,3.09,20.41,5.32,34.37,7.23,40.08H515c-1.48-4.22-3.61-16.67-6.18-35-2.79-20-7.88-27.75-18.88-28.32H478.48V505.1H466.35Zm12.13,66.47h12.41c13,0,21.23-11,21.23-27.73,0-19-8.81-27.21-21.62-27.24-5.89,0-10,.84-12,1.66Z" transform="translate(-209.95 -82.57)"/><path class="cls-8" d="M541.45,359.07h12.13v70.39H554c2.47-5.66,5.07-10.76,7.42-15.52l28.73-54.87h15l-34,62.07,36.7,84H593.5l-30.89-71.62-9,16V505.1H541.45Z" transform="translate(-209.95 -82.57)"/><path class="cls-8" d="M268.57,504.1l-23.83-146h12.87l11.2,73.9c2.71,18.26,5.22,36.34,6.9,50.48H276c1.53-14.5,4.48-31.92,7.65-50.7l12.63-73.68H308.9l11.49,74c2.62,17.49,5.15,34.7,6.6,50.08h.3c1.88-16,4.49-32.27,7.42-50.44l12.43-73.64h12.47l-26.68,146H320.25l-11.84-76c-3-18.81-4.94-33-6.21-47.76h-.28c-1.56,14.64-3.75,28.84-7.24,47.73l-13.31,76Z" transform="translate(-209.95 -82.57)"/><path class="cls-8" d="M451.7,429.62c0,50.11-19.66,76.86-43.63,76.86-24.94,0-42.27-30-42.27-74.11,0-46.27,18.44-76.68,43.54-76.68C435,355.69,451.7,386.24,451.7,429.62Zm-73.05,2.31c0,31.25,10.92,59.21,30.08,59.21s30.12-27.51,30.12-60.69c0-29.07-9.76-59.42-30-59.42S378.65,400,378.65,431.93Z" transform="translate(-209.95 -82.57)"/><path class="cls-8" d="M467.35,360.08a84,84,0,0,1,23.35-3.14c12.89,0,21.39,3.8,27.25,12,4.64,6.4,7.37,16.34,7.37,27.76,0,19.19-7.88,31.94-17.72,37.21v.53c7.17,3.91,11.51,14.44,13.79,29.57,3.09,20.41,5.32,34.37,7.23,40.08H516c-1.48-4.22-3.61-16.67-6.18-35-2.79-20-7.88-27.75-18.88-28.32H479.48V504.1H467.35Zm12.13,66.47h12.41c13,0,21.23-11,21.23-27.73,0-19-8.81-27.21-21.62-27.24-5.89,0-10,.84-12,1.66Z" transform="translate(-209.95 -82.57)"/><path class="cls-8" d="M542.45,358.07h12.13v70.39H555c2.47-5.66,5.07-10.76,7.42-15.52l28.73-54.87h15l-34,62.07,36.7,84H594.5l-30.89-71.62-9,16V504.1H542.45Z" transform="translate(-209.95 -82.57)"/><path class="cls-8" d="M269.57,503.1l-23.83-146h12.87l11.2,73.9c2.71,18.26,5.22,36.34,6.9,50.48H277c1.53-14.5,4.48-31.92,7.65-50.7l12.63-73.68H309.9l11.49,74c2.62,17.49,5.15,34.7,6.6,50.08h.3c1.88-16,4.49-32.27,7.42-50.44l12.43-73.64h12.47l-26.68,146H321.25l-11.84-76c-3-18.81-4.94-33-6.21-47.76h-.28c-1.56,14.64-3.75,28.84-7.24,47.73l-13.31,76Z" transform="translate(-209.95 -82.57)"/><path class="cls-8" d="M452.7,428.62c0,50.11-19.66,76.86-43.63,76.86-24.94,0-42.27-30-42.27-74.11,0-46.27,18.44-76.68,43.54-76.68C436,354.69,452.7,385.24,452.7,428.62Zm-73.05,2.31c0,31.25,10.92,59.21,30.08,59.21s30.12-27.51,30.12-60.69c0-29.07-9.76-59.42-30-59.42S379.65,399,379.65,430.93Z" transform="translate(-209.95 -82.57)"/><path class="cls-8" d="M468.35,359.08a84,84,0,0,1,23.35-3.14c12.89,0,21.39,3.8,27.25,12,4.64,6.4,7.37,16.34,7.37,27.76,0,19.19-7.88,31.94-17.72,37.21v.53c7.17,3.91,11.51,14.44,13.79,29.57,3.09,20.41,5.32,34.37,7.23,40.08H517c-1.48-4.22-3.61-16.67-6.18-35-2.79-20-7.88-27.75-18.88-28.32H480.48V503.1H468.35Zm12.13,66.47h12.41c13,0,21.23-11,21.23-27.73,0-19-8.81-27.21-21.62-27.24-5.89,0-10,.84-12,1.66Z" transform="translate(-209.95 -82.57)"/><path class="cls-8" d="M543.45,357.07h12.13v70.39H556c2.47-5.66,5.07-10.76,7.42-15.52l28.73-54.87h15l-34,62.07,36.7,84H595.5l-30.89-71.62-9,16V503.1H543.45Z" transform="translate(-209.95 -82.57)"/><path class="cls-8" d="M270.57,502.1l-23.83-146h12.87l11.2,73.9c2.71,18.26,5.22,36.34,6.9,50.48H278c1.53-14.5,4.48-31.92,7.65-50.7l12.63-73.68H310.9l11.49,74c2.62,17.49,5.15,34.7,6.6,50.08h.3c1.88-16,4.49-32.27,7.42-50.44l12.43-73.64h12.47l-26.68,146H322.25l-11.84-76c-3-18.81-4.94-33-6.21-47.76h-.28c-1.56,14.64-3.75,28.84-7.24,47.73l-13.31,76Z" transform="translate(-209.95 -82.57)"/><path class="cls-8" d="M453.7,427.62c0,50.11-19.66,76.86-43.63,76.86-24.94,0-42.27-30-42.27-74.11,0-46.27,18.44-76.68,43.54-76.68C437,353.69,453.7,384.24,453.7,427.62Zm-73.05,2.31c0,31.25,10.92,59.21,30.08,59.21s30.12-27.51,30.12-60.69c0-29.07-9.76-59.42-30-59.42S380.65,398,380.65,429.93Z" transform="translate(-209.95 -82.57)"/><path class="cls-8" d="M469.35,358.08a84,84,0,0,1,23.35-3.14c12.89,0,21.39,3.8,27.25,12,4.64,6.4,7.37,16.34,7.37,27.76,0,19.19-7.88,31.94-17.72,37.21v.53c7.17,3.91,11.51,14.44,13.79,29.57,3.09,20.41,5.32,34.37,7.23,40.08H518c-1.48-4.22-3.61-16.67-6.18-35-2.79-20-7.88-27.75-18.88-28.32H481.48V502.1H469.35Zm12.13,66.47h12.41c13,0,21.23-11,21.23-27.73,0-19-8.81-27.21-21.62-27.24-5.89,0-10,.84-12,1.66Z" transform="translate(-209.95 -82.57)"/><path class="cls-8" d="M544.45,356.07h12.13v70.39H557c2.47-5.66,5.07-10.76,7.42-15.52l28.73-54.87h15l-34,62.07,36.7,84H596.5l-30.89-71.62-9,16V502.1H544.45Z" transform="translate(-209.95 -82.57)"/><path class="cls-8" d="M271.57,501.1l-23.83-146h12.87l11.2,73.9c2.71,18.26,5.22,36.34,6.9,50.48H279c1.53-14.5,4.48-31.92,7.65-50.7l12.63-73.68H311.9l11.49,74c2.62,17.49,5.15,34.7,6.6,50.08h.3c1.88-16,4.49-32.27,7.42-50.44l12.43-73.64h12.47l-26.68,146H323.25l-11.84-76c-3-18.81-4.94-33-6.21-47.76h-.28c-1.56,14.64-3.75,28.84-7.24,47.73l-13.31,76Z" transform="translate(-209.95 -82.57)"/><path class="cls-8" d="M454.7,426.62c0,50.11-19.66,76.86-43.63,76.86-24.94,0-42.27-30-42.27-74.11,0-46.27,18.44-76.68,43.54-76.68C438,352.69,454.7,383.24,454.7,426.62Zm-73.05,2.31c0,31.25,10.92,59.21,30.08,59.21s30.12-27.51,30.12-60.69c0-29.07-9.76-59.42-30-59.42S381.65,397,381.65,428.93Z" transform="translate(-209.95 -82.57)"/><path class="cls-8" d="M470.35,357.08a84,84,0,0,1,23.35-3.14c12.89,0,21.39,3.8,27.25,12,4.64,6.4,7.37,16.34,7.37,27.76,0,19.19-7.88,31.94-17.72,37.21v.53c7.17,3.91,11.51,14.44,13.79,29.57,3.09,20.41,5.32,34.37,7.23,40.08H519c-1.48-4.22-3.61-16.67-6.18-35-2.79-20-7.88-27.75-18.88-28.32H482.48V501.1H470.35Zm12.13,66.47h12.41c13,0,21.23-11,21.23-27.73,0-19-8.81-27.21-21.62-27.24-5.89,0-10,.84-12,1.66Z" transform="translate(-209.95 -82.57)"/><path class="cls-8" d="M545.45,355.07h12.13v70.39H558c2.47-5.66,5.07-10.76,7.42-15.52l28.73-54.87h15l-34,62.07,36.7,84H597.5l-30.89-71.62-9,16V501.1H545.45Z" transform="translate(-209.95 -82.57)"/><path class="cls-8" d="M272.57,500.1l-23.83-146h12.87l11.2,73.9c2.71,18.26,5.22,36.34,6.9,50.48H280c1.53-14.5,4.48-31.92,7.65-50.7l12.63-73.68H312.9l11.49,74c2.62,17.49,5.15,34.7,6.6,50.08h.3c1.88-16,4.49-32.27,7.42-50.44l12.43-73.64h12.47l-26.68,146H324.25l-11.84-76c-3-18.81-4.94-33-6.21-47.76h-.28c-1.56,14.64-3.75,28.84-7.24,47.73l-13.31,76Z" transform="translate(-209.95 -82.57)"/><path class="cls-8" d="M455.7,425.62c0,50.11-19.66,76.86-43.63,76.86-24.94,0-42.27-30-42.27-74.11,0-46.27,18.44-76.68,43.54-76.68C439,351.69,455.7,382.24,455.7,425.62Zm-73.05,2.31c0,31.25,10.92,59.21,30.08,59.21s30.12-27.51,30.12-60.69c0-29.07-9.76-59.42-30-59.42S382.65,396,382.65,427.93Z" transform="translate(-209.95 -82.57)"/><path class="cls-8" d="M471.35,356.08a84,84,0,0,1,23.35-3.14c12.89,0,21.39,3.8,27.25,12,4.64,6.4,7.37,16.34,7.37,27.76,0,19.19-7.88,31.94-17.72,37.21v.53c7.17,3.91,11.51,14.44,13.79,29.57,3.09,20.41,5.32,34.37,7.23,40.08H520c-1.48-4.22-3.61-16.67-6.18-35-2.79-20-7.88-27.75-18.88-28.32H483.48V500.1H471.35Zm12.13,66.47h12.41c13,0,21.23-11,21.23-27.73,0-19-8.81-27.21-21.62-27.24-5.89,0-10,.84-12,1.66Z" transform="translate(-209.95 -82.57)"/><path class="cls-8" d="M546.45,354.07h12.13v70.39H559c2.47-5.66,5.07-10.76,7.42-15.52l28.73-54.87h15l-34,62.07,36.7,84H598.5l-30.89-71.62-9,16V500.1H546.45Z" transform="translate(-209.95 -82.57)"/><path class="cls-8" d="M273.57,499.1l-23.83-146h12.87l11.2,73.9c2.71,18.26,5.22,36.34,6.9,50.48H281c1.53-14.5,4.48-31.92,7.65-50.7l12.63-73.68H313.9l11.49,74c2.62,17.49,5.15,34.7,6.6,50.08h.3c1.88-16,4.49-32.27,7.42-50.44l12.43-73.64h12.47l-26.68,146H325.25l-11.84-76c-3-18.81-4.94-33-6.21-47.76h-.28c-1.56,14.64-3.75,28.84-7.24,47.73l-13.31,76Z" transform="translate(-209.95 -82.57)"/><path class="cls-8" d="M456.7,424.62c0,50.11-19.66,76.86-43.63,76.86-24.94,0-42.27-30-42.27-74.11,0-46.27,18.44-76.68,43.54-76.68C440,350.69,456.7,381.24,456.7,424.62Zm-73.05,2.31c0,31.25,10.92,59.21,30.08,59.21s30.12-27.51,30.12-60.69c0-29.07-9.76-59.42-30-59.42S383.65,395,383.65,426.93Z" transform="translate(-209.95 -82.57)"/><path class="cls-8" d="M472.35,355.08a84,84,0,0,1,23.35-3.14c12.89,0,21.39,3.8,27.25,12,4.64,6.4,7.37,16.34,7.37,27.76,0,19.19-7.88,31.94-17.72,37.21v.53c7.17,3.91,11.51,14.44,13.79,29.57,3.09,20.41,5.32,34.37,7.23,40.08H521c-1.48-4.22-3.61-16.67-6.18-35-2.79-20-7.88-27.75-18.88-28.32H484.48V499.1H472.35Zm12.13,66.47h12.41c13,0,21.23-11,21.23-27.73,0-19-8.81-27.21-21.62-27.24-5.89,0-10,.84-12,1.66Z" transform="translate(-209.95 -82.57)"/><path class="cls-8" d="M547.45,353.07h12.13v70.39H560c2.47-5.66,5.07-10.76,7.42-15.52l28.73-54.87h15l-34,62.07,36.7,84H599.5l-30.89-71.62-9,16V499.1H547.45Z" transform="translate(-209.95 -82.57)"/><path class="cls-8" d="M274.57,498.1l-23.83-146h12.87l11.2,73.9c2.71,18.26,5.22,36.34,6.9,50.48H282c1.53-14.5,4.48-31.92,7.65-50.7l12.63-73.68H314.9l11.49,74c2.62,17.49,5.15,34.7,6.6,50.08h.3c1.88-16,4.49-32.27,7.42-50.44l12.43-73.64h12.47l-26.68,146H326.25l-11.84-76c-3-18.81-4.94-33-6.21-47.76h-.28c-1.56,14.64-3.75,28.84-7.24,47.73l-13.31,76Z" transform="translate(-209.95 -82.57)"/><path class="cls-8" d="M457.7,423.62c0,50.11-19.66,76.86-43.63,76.86-24.94,0-42.27-30-42.27-74.11,0-46.27,18.44-76.68,43.54-76.68C441,349.69,457.7,380.24,457.7,423.62Zm-73.05,2.31c0,31.25,10.92,59.21,30.08,59.21s30.12-27.51,30.12-60.69c0-29.07-9.76-59.42-30-59.42S384.65,394,384.65,425.93Z" transform="translate(-209.95 -82.57)"/><path class="cls-8" d="M473.35,354.08a84,84,0,0,1,23.35-3.14c12.89,0,21.39,3.8,27.25,12,4.64,6.4,7.37,16.34,7.37,27.76,0,19.19-7.88,31.94-17.72,37.21v.53c7.17,3.91,11.51,14.44,13.79,29.57,3.09,20.41,5.32,34.37,7.23,40.08H522c-1.48-4.22-3.61-16.67-6.18-35-2.79-20-7.88-27.75-18.88-28.32H485.48V498.1H473.35Zm12.13,66.47h12.41c13,0,21.23-11,21.23-27.73,0-19-8.81-27.21-21.62-27.24-5.89,0-10,.84-12,1.66Z" transform="translate(-209.95 -82.57)"/><path class="cls-8" d="M548.45,352.07h12.13v70.39H561c2.47-5.66,5.07-10.76,7.42-15.52l28.73-54.87h15l-34,62.07,36.7,84H600.5l-30.89-71.62-9,16V498.1H548.45Z" transform="translate(-209.95 -82.57)"/><path class="cls-8" d="M275.57,497.1l-23.83-146h12.87l11.2,73.9c2.71,18.26,5.22,36.34,6.9,50.48H283c1.53-14.5,4.48-31.92,7.65-50.7l12.63-73.68H315.9l11.49,74c2.62,17.49,5.15,34.7,6.6,50.08h.3c1.88-16,4.49-32.27,7.42-50.44l12.43-73.64h12.47l-26.68,146H327.25l-11.84-76c-3-18.81-4.94-33-6.21-47.76h-.28c-1.56,14.64-3.75,28.84-7.24,47.73l-13.31,76Z" transform="translate(-209.95 -82.57)"/><path class="cls-8" d="M458.7,422.62c0,50.11-19.66,76.86-43.63,76.86-24.94,0-42.27-30-42.27-74.11,0-46.27,18.44-76.68,43.54-76.68C442,348.69,458.7,379.24,458.7,422.62Zm-73.05,2.31c0,31.25,10.92,59.21,30.08,59.21s30.12-27.51,30.12-60.69c0-29.07-9.76-59.42-30-59.42S385.65,393,385.65,424.93Z" transform="translate(-209.95 -82.57)"/><path class="cls-8" d="M474.35,353.08a84,84,0,0,1,23.35-3.14c12.89,0,21.39,3.8,27.25,12,4.64,6.4,7.37,16.34,7.37,27.76,0,19.19-7.88,31.94-17.72,37.21v.53c7.17,3.91,11.51,14.44,13.79,29.57,3.09,20.41,5.32,34.37,7.23,40.08H523c-1.48-4.22-3.61-16.67-6.18-35-2.79-20-7.88-27.75-18.88-28.32H486.48V497.1H474.35Zm12.13,66.47h12.41c13,0,21.23-11,21.23-27.73,0-19-8.81-27.21-21.62-27.24-5.89,0-10,.84-12,1.66Z" transform="translate(-209.95 -82.57)"/><path class="cls-8" d="M549.45,351.07h12.13v70.39H562c2.47-5.66,5.07-10.76,7.42-15.52l28.73-54.87h15l-34,62.07,36.7,84H601.5l-30.89-71.62-9,16V497.1H549.45Z" transform="translate(-209.95 -82.57)"/><path class="cls-8" d="M276.57,496.1l-23.83-146h12.87l11.2,73.9c2.71,18.26,5.22,36.34,6.9,50.48H284c1.53-14.5,4.48-31.92,7.65-50.7l12.63-73.68H316.9l11.49,74c2.62,17.49,5.15,34.7,6.6,50.08h.3c1.88-16,4.49-32.27,7.42-50.44l12.43-73.64h12.47l-26.68,146H328.25l-11.84-76c-3-18.81-4.94-33-6.21-47.76h-.28c-1.56,14.64-3.75,28.84-7.24,47.73l-13.31,76Z" transform="translate(-209.95 -82.57)"/><path class="cls-8" d="M459.7,421.62c0,50.11-19.66,76.86-43.63,76.86-24.94,0-42.27-30-42.27-74.11,0-46.27,18.44-76.68,43.54-76.68C443,347.69,459.7,378.24,459.7,421.62Zm-73.05,2.31c0,31.25,10.92,59.21,30.08,59.21s30.12-27.51,30.12-60.69c0-29.07-9.76-59.42-30-59.42S386.65,392,386.65,423.93Z" transform="translate(-209.95 -82.57)"/><path class="cls-8" d="M475.35,352.08a84,84,0,0,1,23.35-3.14c12.89,0,21.39,3.8,27.25,12,4.64,6.4,7.37,16.34,7.37,27.76,0,19.19-7.88,31.94-17.72,37.21v.53c7.17,3.91,11.51,14.44,13.79,29.57,3.09,20.41,5.32,34.37,7.23,40.08H524c-1.48-4.22-3.61-16.67-6.18-35-2.79-20-7.88-27.75-18.88-28.32H487.48V496.1H475.35Zm12.13,66.47h12.41c13,0,21.23-11,21.23-27.73,0-19-8.81-27.21-21.62-27.24-5.89,0-10,.84-12,1.66Z" transform="translate(-209.95 -82.57)"/><path class="cls-8" d="M550.45,350.07h12.13v70.39H563c2.47-5.66,5.07-10.76,7.42-15.52l28.73-54.87h15l-34,62.07,36.7,84H602.5l-30.89-71.62-9,16V496.1H550.45Z" transform="translate(-209.95 -82.57)"/><path class="cls-8" d="M277.57,495.1l-23.83-146h12.87l11.2,73.9c2.71,18.26,5.22,36.34,6.9,50.48H285c1.53-14.5,4.48-31.92,7.65-50.7l12.63-73.68H317.9l11.49,74c2.62,17.49,5.15,34.7,6.6,50.08h.3c1.88-16,4.49-32.27,7.42-50.44l12.43-73.64h12.47l-26.68,146H329.25l-11.84-76c-3-18.81-4.94-33-6.21-47.76h-.28c-1.56,14.64-3.75,28.84-7.24,47.73l-13.31,76Z" transform="translate(-209.95 -82.57)"/><path class="cls-8" d="M460.7,420.62c0,50.11-19.66,76.86-43.63,76.86-24.94,0-42.27-30-42.27-74.11,0-46.27,18.44-76.68,43.54-76.68C444,346.69,460.7,377.24,460.7,420.62Zm-73.05,2.31c0,31.25,10.92,59.21,30.08,59.21s30.12-27.51,30.12-60.69c0-29.07-9.76-59.42-30-59.42S387.65,391,387.65,422.93Z" transform="translate(-209.95 -82.57)"/><path class="cls-8" d="M476.35,351.08a84,84,0,0,1,23.35-3.14c12.89,0,21.39,3.8,27.25,12,4.64,6.4,7.37,16.34,7.37,27.76,0,19.19-7.88,31.94-17.72,37.21v.53c7.17,3.91,11.51,14.44,13.79,29.57,3.09,20.41,5.32,34.37,7.23,40.08H525c-1.48-4.22-3.61-16.67-6.18-35-2.79-20-7.88-27.75-18.88-28.32H488.48V495.1H476.35Zm12.13,66.47h12.41c13,0,21.23-11,21.23-27.73,0-19-8.81-27.21-21.62-27.24-5.89,0-10,.84-12,1.66Z" transform="translate(-209.95 -82.57)"/><path class="cls-8" d="M551.45,349.07h12.13v70.39H564c2.47-5.66,5.07-10.76,7.42-15.52l28.73-54.87h15l-34,62.07,36.7,84H603.5l-30.89-71.62-9,16V495.1H551.45Z" transform="translate(-209.95 -82.57)"/><path class="cls-8" d="M278.57,494.1l-23.83-146h12.87l11.2,73.9c2.71,18.26,5.22,36.34,6.9,50.48H286c1.53-14.5,4.48-31.92,7.65-50.7l12.63-73.68H318.9l11.49,74c2.62,17.49,5.15,34.7,6.6,50.08h.3c1.88-16,4.49-32.27,7.42-50.44l12.43-73.64h12.47l-26.68,146H330.25l-11.84-76c-3-18.81-4.94-33-6.21-47.76h-.28c-1.56,14.64-3.75,28.84-7.24,47.73l-13.31,76Z" transform="translate(-209.95 -82.57)"/><path class="cls-8" d="M461.7,419.62c0,50.11-19.66,76.86-43.63,76.86-24.94,0-42.27-30-42.27-74.11,0-46.27,18.44-76.68,43.54-76.68C445,345.69,461.7,376.24,461.7,419.62Zm-73.05,2.31c0,31.25,10.92,59.21,30.08,59.21s30.12-27.51,30.12-60.69c0-29.07-9.76-59.42-30-59.42S388.65,390,388.65,421.93Z" transform="translate(-209.95 -82.57)"/><path class="cls-8" d="M477.35,350.08a84,84,0,0,1,23.35-3.14c12.89,0,21.39,3.8,27.25,12,4.64,6.4,7.37,16.34,7.37,27.76,0,19.19-7.88,31.94-17.72,37.21v.53c7.17,3.91,11.51,14.44,13.79,29.57,3.09,20.41,5.32,34.37,7.23,40.08H526c-1.48-4.22-3.61-16.67-6.18-35-2.79-20-7.88-27.75-18.88-28.32H489.48V494.1H477.35Zm12.13,66.47h12.41c13,0,21.23-11,21.23-27.73,0-19-8.81-27.21-21.62-27.24-5.89,0-10,.84-12,1.66Z" transform="translate(-209.95 -82.57)"/><path class="cls-8" d="M552.45,348.07h12.13v70.39H565c2.47-5.66,5.07-10.76,7.42-15.52l28.73-54.87h15l-34,62.07,36.7,84H604.5l-30.89-71.62-9,16V494.1H552.45Z" transform="translate(-209.95 -82.57)"/><path class="cls-8" d="M279.57,493.1l-23.83-146h12.87l11.2,73.9c2.71,18.26,5.22,36.34,6.9,50.48H287c1.53-14.5,4.48-31.92,7.65-50.7l12.63-73.68H319.9l11.49,74c2.62,17.49,5.15,34.7,6.6,50.08h.3c1.88-16,4.49-32.27,7.42-50.44l12.43-73.64h12.47l-26.68,146H331.25l-11.84-76c-3-18.81-4.94-33-6.21-47.76h-.28c-1.56,14.64-3.75,28.84-7.24,47.73l-13.31,76Z" transform="translate(-209.95 -82.57)"/><path class="cls-8" d="M462.7,418.62c0,50.11-19.66,76.86-43.63,76.86-24.94,0-42.27-30-42.27-74.11,0-46.27,18.44-76.68,43.54-76.68C446,344.69,462.7,375.24,462.7,418.62Zm-73.05,2.31c0,31.25,10.92,59.21,30.08,59.21s30.12-27.51,30.12-60.69c0-29.07-9.76-59.42-30-59.42S389.65,389,389.65,420.93Z" transform="translate(-209.95 -82.57)"/><path class="cls-8" d="M478.35,349.08a84,84,0,0,1,23.35-3.14c12.89,0,21.39,3.8,27.25,12,4.64,6.4,7.37,16.34,7.37,27.76,0,19.19-7.88,31.94-17.72,37.21v.53c7.17,3.91,11.51,14.44,13.79,29.57,3.09,20.41,5.32,34.37,7.23,40.08H527c-1.48-4.22-3.61-16.67-6.18-35-2.79-20-7.88-27.75-18.88-28.32H490.48V493.1H478.35Zm12.13,66.47h12.41c13,0,21.23-11,21.23-27.73,0-19-8.81-27.21-21.62-27.24-5.89,0-10,.84-12,1.66Z" transform="translate(-209.95 -82.57)"/><path class="cls-8" d="M553.45,347.07h12.13v70.39H566c2.47-5.66,5.07-10.76,7.42-15.52l28.73-54.87h15l-34,62.07,36.7,84H605.5l-30.89-71.62-9,16V493.1H553.45Z" transform="translate(-209.95 -82.57)"/><path class="cls-8" d="M280.57,492.1l-23.83-146h12.87l11.2,73.9c2.71,18.26,5.22,36.34,6.9,50.48H288c1.53-14.5,4.48-31.92,7.65-50.7l12.63-73.68H320.9l11.49,74c2.62,17.49,5.15,34.7,6.6,50.08h.3c1.88-16,4.49-32.27,7.42-50.44l12.43-73.64h12.47l-26.68,146H332.25l-11.84-76c-3-18.81-4.94-33-6.21-47.76h-.28c-1.56,14.64-3.75,28.84-7.24,47.73l-13.31,76Z" transform="translate(-209.95 -82.57)"/><path class="cls-8" d="M463.7,417.62c0,50.11-19.66,76.86-43.63,76.86-24.94,0-42.27-30-42.27-74.11,0-46.27,18.44-76.68,43.54-76.68C447,343.69,463.7,374.24,463.7,417.62Zm-73.05,2.31c0,31.25,10.92,59.21,30.08,59.21s30.12-27.51,30.12-60.69c0-29.07-9.76-59.42-30-59.42S390.65,388,390.65,419.93Z" transform="translate(-209.95 -82.57)"/><path class="cls-8" d="M479.35,348.08a84,84,0,0,1,23.35-3.14c12.89,0,21.39,3.8,27.25,12,4.64,6.4,7.37,16.34,7.37,27.76,0,19.19-7.88,31.94-17.72,37.21v.53c7.17,3.91,11.51,14.44,13.79,29.57,3.09,20.41,5.32,34.37,7.23,40.08H528c-1.48-4.22-3.61-16.67-6.18-35-2.79-20-7.88-27.75-18.88-28.32H491.48V492.1H479.35Zm12.13,66.47h12.41c13,0,21.23-11,21.23-27.73,0-19-8.81-27.21-21.62-27.24-5.89,0-10,.84-12,1.66Z" transform="translate(-209.95 -82.57)"/><path class="cls-8" d="M554.45,346.07h12.13v70.39H567c2.47-5.66,5.07-10.76,7.42-15.52l28.73-54.87h15l-34,62.07,36.7,84H606.5l-30.89-71.62-9,16V492.1H554.45Z" transform="translate(-209.95 -82.57)"/><path class="cls-8" d="M281.57,491.1l-23.83-146h12.87l11.2,73.9c2.71,18.26,5.22,36.34,6.9,50.48H289c1.53-14.5,4.48-31.92,7.65-50.7l12.63-73.68H321.9l11.49,74c2.62,17.49,5.15,34.7,6.6,50.08h.3c1.88-16,4.49-32.27,7.42-50.44l12.43-73.64h12.47l-26.68,146H333.25l-11.84-76c-3-18.81-4.94-33-6.21-47.76h-.28c-1.56,14.64-3.75,28.84-7.24,47.73l-13.31,76Z" transform="translate(-209.95 -82.57)"/><path class="cls-8" d="M464.7,416.62c0,50.11-19.66,76.86-43.63,76.86-24.94,0-42.27-30-42.27-74.11,0-46.27,18.44-76.68,43.54-76.68C448,342.69,464.7,373.24,464.7,416.62Zm-73.05,2.31c0,31.25,10.92,59.21,30.08,59.21s30.12-27.51,30.12-60.69c0-29.07-9.76-59.42-30-59.42S391.65,387,391.65,418.93Z" transform="translate(-209.95 -82.57)"/><path class="cls-8" d="M480.35,347.08a84,84,0,0,1,23.35-3.14c12.89,0,21.39,3.8,27.25,12,4.64,6.4,7.37,16.34,7.37,27.76,0,19.19-7.88,31.94-17.72,37.21v.53c7.17,3.91,11.51,14.44,13.79,29.57,3.09,20.41,5.32,34.37,7.23,40.08H529c-1.48-4.22-3.61-16.67-6.18-35-2.79-20-7.88-27.75-18.88-28.32H492.48V491.1H480.35Zm12.13,66.47h12.41c13,0,21.23-11,21.23-27.73,0-19-8.81-27.21-21.62-27.24-5.89,0-10,.84-12,1.66Z" transform="translate(-209.95 -82.57)"/><path class="cls-8" d="M555.45,345.07h12.13v70.39H568c2.47-5.66,5.07-10.76,7.42-15.52l28.73-54.87h15l-34,62.07,36.7,84H607.5l-30.89-71.62-9,16V491.1H555.45Z" transform="translate(-209.95 -82.57)"/><path class="cls-8" d="M282.57,490.1l-23.83-146h12.87l11.2,73.9c2.71,18.26,5.22,36.34,6.9,50.48H290c1.53-14.5,4.48-31.92,7.65-50.7l12.63-73.68H322.9l11.49,74c2.62,17.49,5.15,34.7,6.6,50.08h.3c1.88-16,4.49-32.27,7.42-50.44l12.43-73.64h12.47l-26.68,146H334.25l-11.84-76c-3-18.81-4.94-33-6.21-47.76h-.28c-1.56,14.64-3.75,28.84-7.24,47.73l-13.31,76Z" transform="translate(-209.95 -82.57)"/><path class="cls-8" d="M465.7,415.62c0,50.11-19.66,76.86-43.63,76.86-24.94,0-42.27-30-42.27-74.11,0-46.27,18.44-76.68,43.54-76.68C449,341.69,465.7,372.24,465.7,415.62Zm-73.05,2.31c0,31.25,10.92,59.21,30.08,59.21s30.12-27.51,30.12-60.69c0-29.07-9.76-59.42-30-59.42S392.65,386,392.65,417.93Z" transform="translate(-209.95 -82.57)"/><path class="cls-8" d="M481.35,346.08a84,84,0,0,1,23.35-3.14c12.89,0,21.39,3.8,27.25,12,4.64,6.4,7.37,16.34,7.37,27.76,0,19.19-7.88,31.94-17.72,37.21v.53c7.17,3.91,11.51,14.44,13.79,29.57,3.09,20.41,5.32,34.37,7.23,40.08H530c-1.48-4.22-3.61-16.67-6.18-35-2.79-20-7.88-27.75-18.88-28.32H493.48V490.1H481.35Zm12.13,66.47h12.41c13,0,21.23-11,21.23-27.73,0-19-8.81-27.21-21.62-27.24-5.89,0-10,.84-12,1.66Z" transform="translate(-209.95 -82.57)"/><path class="cls-8" d="M556.45,344.07h12.13v70.39H569c2.47-5.66,5.07-10.76,7.42-15.52l28.73-54.87h15l-34,62.07,36.7,84H608.5l-30.89-71.62-9,16V490.1H556.45Z" transform="translate(-209.95 -82.57)"/><path class="cls-8" d="M283.57,489.1l-23.83-146h12.87l11.2,73.9c2.71,18.26,5.22,36.34,6.9,50.48H291c1.53-14.5,4.48-31.92,7.65-50.7l12.63-73.68H323.9l11.49,74c2.62,17.49,5.15,34.7,6.6,50.08h.3c1.88-16,4.49-32.27,7.42-50.44l12.43-73.64h12.47l-26.68,146H335.25l-11.84-76c-3-18.81-4.94-33-6.21-47.76h-.28c-1.56,14.64-3.75,28.84-7.24,47.73l-13.31,76Z" transform="translate(-209.95 -82.57)"/><path class="cls-8" d="M466.7,414.62c0,50.11-19.66,76.86-43.63,76.86-24.94,0-42.27-30-42.27-74.11,0-46.27,18.44-76.68,43.54-76.68C450,340.69,466.7,371.24,466.7,414.62Zm-73.05,2.31c0,31.25,10.92,59.21,30.08,59.21s30.12-27.51,30.12-60.69c0-29.07-9.76-59.42-30-59.42S393.65,385,393.65,416.93Z" transform="translate(-209.95 -82.57)"/><path class="cls-8" d="M482.35,345.08a84,84,0,0,1,23.35-3.14c12.89,0,21.39,3.8,27.25,12,4.64,6.4,7.37,16.34,7.37,27.76,0,19.19-7.88,31.94-17.72,37.21v.53c7.17,3.91,11.51,14.44,13.79,29.57,3.09,20.41,5.32,34.37,7.23,40.08H531c-1.48-4.22-3.61-16.67-6.18-35-2.79-20-7.88-27.75-18.88-28.32H494.48V489.1H482.35Zm12.13,66.47h12.41c13,0,21.23-11,21.23-27.73,0-19-8.81-27.21-21.62-27.24-5.89,0-10,.84-12,1.66Z" transform="translate(-209.95 -82.57)"/><path class="cls-8" d="M557.45,343.07h12.13v70.39H570c2.47-5.66,5.07-10.76,7.42-15.52l28.73-54.87h15l-34,62.07,36.7,84H609.5l-30.89-71.62-9,16V489.1H557.45Z" transform="translate(-209.95 -82.57)"/><path class="cls-8" d="M284.57,488.1l-23.83-146h12.87l11.2,73.9c2.71,18.26,5.22,36.34,6.9,50.48H292c1.53-14.5,4.48-31.92,7.65-50.7l12.63-73.68H324.9l11.49,74c2.62,17.49,5.15,34.7,6.6,50.08h.3c1.88-16,4.49-32.27,7.42-50.44l12.43-73.64h12.47l-26.68,146H336.25l-11.84-76c-3-18.81-4.94-33-6.21-47.76h-.28c-1.56,14.64-3.75,28.84-7.24,47.73l-13.31,76Z" transform="translate(-209.95 -82.57)"/><path class="cls-8" d="M467.7,413.62c0,50.11-19.66,76.86-43.63,76.86-24.94,0-42.27-30-42.27-74.11,0-46.27,18.44-76.68,43.54-76.68C451,339.69,467.7,370.24,467.7,413.62Zm-73.05,2.31c0,31.25,10.92,59.21,30.08,59.21s30.12-27.51,30.12-60.69c0-29.07-9.76-59.42-30-59.42S394.65,384,394.65,415.93Z" transform="translate(-209.95 -82.57)"/><path class="cls-8" d="M483.35,344.08a84,84,0,0,1,23.35-3.14c12.89,0,21.39,3.8,27.25,12,4.64,6.4,7.37,16.34,7.37,27.76,0,19.19-7.88,31.94-17.72,37.21v.53c7.17,3.91,11.51,14.44,13.79,29.57,3.09,20.41,5.32,34.37,7.23,40.08H532c-1.48-4.22-3.61-16.67-6.18-35-2.79-20-7.88-27.75-18.88-28.32H495.48V488.1H483.35Zm12.13,66.47h12.41c13,0,21.23-11,21.23-27.73,0-19-8.81-27.21-21.62-27.24-5.89,0-10,.84-12,1.66Z" transform="translate(-209.95 -82.57)"/><path class="cls-8" d="M558.45,342.07h12.13v70.39H571c2.47-5.66,5.07-10.76,7.42-15.52l28.73-54.87h15l-34,62.07,36.7,84H610.5l-30.89-71.62-9,16V488.1H558.45Z" transform="translate(-209.95 -82.57)"/><path class="cls-2" d="M337.1,487.1,325.4,412c-2.76-17.4-4.87-32.17-6.21-47.69l-.08-.91H317l-.1.89c-1.51,14.23-3.6,28-7.23,47.66L296.53,487.1H285.42l-23.51-144h10.84l11.07,73.05c3,20.07,5.36,37.51,6.89,50.44l.11.89h2.12l.09-.9c1.5-14.24,4.41-31.5,7.49-49.78l12.63-73.7H324l11.36,73.16c2.77,18.45,5.18,35,6.59,50l.09.9h2.1l.1-.88c1.91-16.24,4.58-32.84,7.41-50.4l12.3-72.8h10.42l-26.31,144Z" transform="translate(-209.95 -82.57)"/><path class="cls-2" d="M424.07,489.48c-24.3,0-41.27-30.06-41.27-73.11,0-44.56,17.5-75.68,42.54-75.68,24.74,0,41.36,29.31,41.36,72.93,0,23.52-4.39,43.12-12.68,56.7C446.47,482.68,435.83,489.48,424.07,489.48ZM424.88,354c-21.58,0-31.23,31.09-31.23,61.9,0,16,2.82,30.85,8,41.75,5.68,12.08,13.68,18.46,23.13,18.46,15.49,0,31.12-19.07,31.12-61.69C455.85,372.94,439.8,354,424.88,354Z" transform="translate(-209.95 -82.57)"/><path class="cls-2" d="M532.75,487.1c-1.37-4.48-3.36-15.94-5.91-34.1-2.89-20.67-8.26-28.58-19.81-29.18H494.48V487.1H484.35V344.82a85.07,85.07,0,0,1,22.35-2.88c12.56,0,20.71,3.57,26.44,11.6,4.57,6.29,7.18,16.19,7.18,27.17,0,17-6.42,30.56-17.19,36.33l-.53.28v1.73l.52.28c6.46,3.52,10.92,13.22,13.28,28.84,2.8,18.49,5,32.33,6.87,38.93ZM507.5,354.58c-7.29,0-11.1,1.21-12.39,1.74l-.63.25v55h13.41c13.5,0,22.23-11.28,22.23-28.73,0-18.17-8-28.2-22.62-28.24Z" transform="translate(-209.95 -82.57)"/><path class="cls-2" d="M611.16,487.1l-31.43-72.87-10.15,18V487.1H559.45v-144h10.13v70.39h2.09l.27-.6c2-4.65,4.13-8.88,6.16-13l1.24-2.52,28.43-54.31h12.75l-33.43,61,36.28,83Z" transform="translate(-209.95 -82.57)"/><path class="cls-12" d="M338,486.1l-11.57-74.29c-2.76-17.38-4.86-32.13-6.2-47.63l-.16-1.82h-3.91l-.19,1.78c-1.51,14.21-3.6,28-7.22,47.59l-13,74.37h-9.42l-23.18-142h8.8l10.94,72.2c3,20.05,5.36,37.49,6.89,50.41l.21,1.77h3.91l.18-1.79c1.5-14.22,4.41-31.46,7.49-49.72L314,344.07h9.18l11.24,72.31c2.76,18.44,5.16,34.93,6.58,50l.17,1.81h3.9l.21-1.76c1.9-16.22,4.57-32.81,7.4-50.36l12.15-72h8.38l-25.94,142Z" transform="translate(-209.95 -82.57)"/><path class="cls-12" d="M424.07,488.48c-23.71,0-40.27-29.65-40.27-72.11,0-44,17.09-74.68,41.54-74.68,24.14,0,40.36,28.91,40.36,71.93C465.7,458.4,449,488.48,424.07,488.48ZM424.88,353c-22.27,0-32.23,31.59-32.23,62.9,0,42.06,16.63,61.21,32.08,61.21,19.21,0,32.12-25.19,32.12-62.69C456.85,384.87,446.85,353,424.88,353Z" transform="translate(-209.95 -82.57)"/><path class="cls-12" d="M533.5,486.1c-1.34-4.84-3.25-16-5.67-33.24-2.93-21-8.75-29.42-20.75-30h-13.6V486.1h-8.13V345.57a86,86,0,0,1,21.35-2.63c12.2,0,20.1,3.44,25.62,11.18,4.46,6.13,7,15.82,7,26.59,0,16.61-6.23,29.86-16.66,35.45l-1.06.56v2.92l1,.57c6.17,3.36,10.46,12.81,12.77,28.11,2.64,17.4,4.72,30.7,6.55,37.78Zm-26-132.52c-7.47,0-11.41,1.27-12.77,1.81l-1.25.5v56.66h14.41c14.11,0,23.23-11.67,23.23-29.73,0-18.54-8.61-29.2-23.61-29.24Z" transform="translate(-209.95 -82.57)"/><path class="cls-12" d="M611.82,486.1l-32-74.12-11.26,20V486.1h-8.13v-142h8.13v70.39h3.75l.52-1.2c2-4.63,4.12-8.84,6.14-12.92l1.25-2.51,28.14-53.76h10.45L586,404l35.87,82.06Z" transform="translate(-209.95 -82.57)"/><path class="cls-10" d="M393.86,597.44l-12.24-75.05h6.61l5.76,38c1.39,9.38,2.68,18.67,3.54,25.94h.17c.78-7.45,2.3-16.4,3.93-26.06l6.49-37.86h6.47l5.91,38c1.35,9,2.64,17.83,3.39,25.74H424c1-8.22,2.31-16.59,3.81-25.93l6.4-37.84h6.41l-13.72,75.05h-6.52l-6.08-39.05c-1.53-9.67-2.54-17-3.19-24.55H411c-.8,7.53-1.93,14.83-3.72,24.54l-6.84,39.06Z" transform="translate(-209.95 -82.57)"/><path class="cls-10" d="M452.92,522.39v75.05h-6.27V522.39Z" transform="translate(-209.95 -82.57)"/><path class="cls-10" d="M473,530.58H458.31v-8.19h35.78v8.19H479.3v66.86H473Z" transform="translate(-209.95 -82.57)"/><path class="cls-10" d="M505.67,522.39v31.43H529V522.39h6.28v75.05H529V562.23H505.67v35.21H499.4V522.39Z" transform="translate(-209.95 -82.57)"/><path class="cls-10" d="M568.9,597.44V565.62l-15.32-43.23h7.14l6.79,20.73c1.84,5.69,3.32,10.24,4.8,15.49h.15c1.33-4.94,3-9.85,4.85-15.55l7-20.67h7.08l-16.18,43.09v32Z" transform="translate(-209.95 -82.57)"/><path class="cls-10" d="M635.62,559.16c0,25.75-10.1,39.5-22.42,39.5-12.82,0-21.72-15.41-21.72-38.09,0-23.78,9.48-39.4,22.38-39.4C627.05,521.17,635.62,536.87,635.62,559.16Zm-37.54,1.19c0,16.06,5.62,30.43,15.46,30.43S629,576.64,629,559.59c0-14.94-5-30.54-15.4-30.54S598.08,543.93,598.08,560.35Z" transform="translate(-209.95 -82.57)"/><path class="cls-10" d="M649.91,522.39v44.48c0,16.74,4.78,23.84,11.3,23.84,7.11,0,11.75-7.35,11.75-23.84V522.39h6.28v43.79c0,23.07-7.81,32.48-18.29,32.48-9.87,0-17.32-8.74-17.32-32.06V522.39Z" transform="translate(-209.95 -82.57)"/><path class="cls-10" d="M394.86,596.44l-12.24-75.05h6.61l5.76,38c1.39,9.38,2.68,18.67,3.54,25.94h.17c.78-7.45,2.3-16.4,3.93-26.06l6.49-37.86h6.47l5.91,38c1.35,9,2.64,17.83,3.39,25.74H425c1-8.22,2.31-16.59,3.81-25.93l6.4-37.84h6.41l-13.72,75.05h-6.52l-6.08-39.05c-1.53-9.67-2.54-17-3.19-24.55H412c-.8,7.53-1.93,14.83-3.72,24.54l-6.84,39.06Z" transform="translate(-209.95 -82.57)"/><path class="cls-10" d="M453.92,521.39v75.05h-6.27V521.39Z" transform="translate(-209.95 -82.57)"/><path class="cls-10" d="M474,529.58H459.31v-8.19h35.78v8.19H480.3v66.86H474Z" transform="translate(-209.95 -82.57)"/><path class="cls-10" d="M506.67,521.39v31.43H530V521.39h6.28v75.05H530V561.23H506.67v35.21H500.4V521.39Z" transform="translate(-209.95 -82.57)"/><path class="cls-10" d="M569.9,596.44V564.62l-15.32-43.23h7.14l6.79,20.73c1.84,5.69,3.32,10.24,4.8,15.49h.15c1.33-4.94,3-9.85,4.85-15.55l7-20.67h7.08l-16.18,43.09v32Z" transform="translate(-209.95 -82.57)"/><path class="cls-10" d="M636.62,558.16c0,25.75-10.1,39.5-22.42,39.5-12.82,0-21.72-15.41-21.72-38.09,0-23.78,9.48-39.4,22.38-39.4C628.05,520.17,636.62,535.87,636.62,558.16Zm-37.54,1.19c0,16.06,5.62,30.43,15.46,30.43S630,575.64,630,558.59c0-14.94-5-30.54-15.4-30.54S599.08,542.93,599.08,559.35Z" transform="translate(-209.95 -82.57)"/><path class="cls-10" d="M650.91,521.39v44.48c0,16.74,4.78,23.84,11.3,23.84,7.11,0,11.75-7.35,11.75-23.84V521.39h6.28v43.79c0,23.07-7.81,32.48-18.29,32.48-9.87,0-17.32-8.74-17.32-32.06V521.39Z" transform="translate(-209.95 -82.57)"/><path class="cls-10" d="M395.86,595.44l-12.24-75.05h6.61l5.76,38c1.39,9.38,2.68,18.67,3.54,25.94h.17c.78-7.45,2.3-16.4,3.93-26.06l6.49-37.86h6.47l5.91,38c1.35,9,2.64,17.83,3.39,25.74H426c1-8.22,2.31-16.59,3.81-25.93l6.4-37.84h6.41l-13.72,75.05h-6.52l-6.08-39.05c-1.53-9.67-2.54-17-3.19-24.55H413c-.8,7.53-1.93,14.83-3.72,24.54l-6.84,39.06Z" transform="translate(-209.95 -82.57)"/><path class="cls-10" d="M454.92,520.39v75.05h-6.27V520.39Z" transform="translate(-209.95 -82.57)"/><path class="cls-10" d="M475,528.58H460.31v-8.19h35.78v8.19H481.3v66.86H475Z" transform="translate(-209.95 -82.57)"/><path class="cls-10" d="M507.67,520.39v31.43H531V520.39h6.28v75.05H531V560.23H507.67v35.21H501.4V520.39Z" transform="translate(-209.95 -82.57)"/><path class="cls-10" d="M570.9,595.44V563.62l-15.32-43.23h7.14l6.79,20.73c1.84,5.69,3.32,10.24,4.8,15.49h.15c1.33-4.94,3-9.85,4.85-15.55l7-20.67h7.08l-16.18,43.09v32Z" transform="translate(-209.95 -82.57)"/><path class="cls-10" d="M637.62,557.16c0,25.75-10.1,39.5-22.42,39.5-12.82,0-21.72-15.41-21.72-38.09,0-23.78,9.48-39.4,22.38-39.4C629.05,519.17,637.62,534.87,637.62,557.16Zm-37.54,1.19c0,16.06,5.62,30.43,15.46,30.43S631,574.64,631,557.59c0-14.94-5-30.54-15.4-30.54S600.08,541.93,600.08,558.35Z" transform="translate(-209.95 -82.57)"/><path class="cls-10" d="M651.91,520.39v44.48c0,16.74,4.78,23.84,11.3,23.84,7.11,0,11.75-7.35,11.75-23.84V520.39h6.28v43.79c0,23.07-7.81,32.48-18.29,32.48-9.87,0-17.32-8.74-17.32-32.06V520.39Z" transform="translate(-209.95 -82.57)"/><path class="cls-10" d="M396.86,594.44l-12.24-75.05h6.61l5.76,38c1.39,9.38,2.68,18.67,3.54,25.94h.17c.78-7.45,2.3-16.4,3.93-26.06l6.49-37.86h6.47l5.91,38c1.35,9,2.64,17.83,3.39,25.74H427c1-8.22,2.31-16.59,3.81-25.93l6.4-37.84h6.41l-13.72,75.05h-6.52l-6.08-39.05c-1.53-9.67-2.54-17-3.19-24.55H414c-.8,7.53-1.93,14.83-3.72,24.54l-6.84,39.06Z" transform="translate(-209.95 -82.57)"/><path class="cls-10" d="M455.92,519.39v75.05h-6.27V519.39Z" transform="translate(-209.95 -82.57)"/><path class="cls-10" d="M476,527.58H461.31v-8.19h35.78v8.19H482.3v66.86H476Z" transform="translate(-209.95 -82.57)"/><path class="cls-10" d="M508.67,519.39v31.43H532V519.39h6.28v75.05H532V559.23H508.67v35.21H502.4V519.39Z" transform="translate(-209.95 -82.57)"/><path class="cls-10" d="M571.9,594.44V562.62l-15.32-43.23h7.14l6.79,20.73c1.84,5.69,3.32,10.24,4.8,15.49h.15c1.33-4.94,3-9.85,4.85-15.55l7-20.67h7.08l-16.18,43.09v32Z" transform="translate(-209.95 -82.57)"/><path class="cls-10" d="M638.62,556.16c0,25.75-10.1,39.5-22.42,39.5-12.82,0-21.72-15.41-21.72-38.09,0-23.78,9.48-39.4,22.38-39.4C630.05,518.17,638.62,533.87,638.62,556.16Zm-37.54,1.19c0,16.06,5.62,30.43,15.46,30.43S632,573.64,632,556.59c0-14.94-5-30.54-15.4-30.54S601.08,540.93,601.08,557.35Z" transform="translate(-209.95 -82.57)"/><path class="cls-10" d="M652.91,519.39v44.48c0,16.74,4.78,23.84,11.3,23.84,7.11,0,11.75-7.35,11.75-23.84V519.39h6.28v43.79c0,23.07-7.81,32.48-18.29,32.48-9.87,0-17.32-8.74-17.32-32.06V519.39Z" transform="translate(-209.95 -82.57)"/><path class="cls-10" d="M397.86,593.44l-12.24-75.05h6.61l5.76,38c1.39,9.38,2.68,18.67,3.54,25.94h.17c.78-7.45,2.3-16.4,3.93-26.06l6.49-37.86h6.47l5.91,38c1.35,9,2.64,17.83,3.39,25.74H428c1-8.22,2.31-16.59,3.81-25.93l6.4-37.84h6.41l-13.72,75.05h-6.52l-6.08-39.05c-1.53-9.67-2.54-17-3.19-24.55H415c-.8,7.53-1.93,14.83-3.72,24.54l-6.84,39.06Z" transform="translate(-209.95 -82.57)"/><path class="cls-10" d="M456.92,518.39v75.05h-6.27V518.39Z" transform="translate(-209.95 -82.57)"/><path class="cls-10" d="M477,526.58H462.31v-8.19h35.78v8.19H483.3v66.86H477Z" transform="translate(-209.95 -82.57)"/><path class="cls-10" d="M509.67,518.39v31.43H533V518.39h6.28v75.05H533V558.23H509.67v35.21H503.4V518.39Z" transform="translate(-209.95 -82.57)"/><path class="cls-10" d="M572.9,593.44V561.62l-15.32-43.23h7.14l6.79,20.73c1.84,5.69,3.32,10.24,4.8,15.49h.15c1.33-4.94,3-9.85,4.85-15.55l7-20.67h7.08l-16.18,43.09v32Z" transform="translate(-209.95 -82.57)"/><path class="cls-10" d="M639.62,555.16c0,25.75-10.1,39.5-22.42,39.5-12.82,0-21.72-15.41-21.72-38.09,0-23.78,9.48-39.4,22.38-39.4C631.05,517.17,639.62,532.87,639.62,555.16Zm-37.54,1.19c0,16.06,5.62,30.43,15.46,30.43S633,572.64,633,555.59c0-14.94-5-30.54-15.4-30.54S602.08,539.93,602.08,556.35Z" transform="translate(-209.95 -82.57)"/><path class="cls-10" d="M653.91,518.39v44.48c0,16.74,4.78,23.84,11.3,23.84,7.11,0,11.75-7.35,11.75-23.84V518.39h6.28v43.79c0,23.07-7.81,32.48-18.29,32.48-9.87,0-17.32-8.74-17.32-32.06V518.39Z" transform="translate(-209.95 -82.57)"/><path class="cls-2" d="M395.86,595.44l-12.24-75.05h6.61l5.76,38c1.39,9.38,2.68,18.67,3.54,25.94h.17c.78-7.45,2.3-16.4,3.93-26.06l6.49-37.86h6.47l5.91,38c1.35,9,2.64,17.83,3.39,25.74H426c1-8.22,2.31-16.59,3.81-25.93l6.4-37.84h6.41l-13.72,75.05h-6.52l-6.08-39.05c-1.53-9.67-2.54-17-3.19-24.55H413c-.8,7.53-1.93,14.83-3.72,24.54l-6.84,39.06Z" transform="translate(-209.95 -82.57)"/><path class="cls-2" d="M454.92,520.39v75.05h-6.27V520.39Z" transform="translate(-209.95 -82.57)"/><path class="cls-2" d="M475,528.58H460.31v-8.19h35.78v8.19H481.3v66.86H475Z" transform="translate(-209.95 -82.57)"/><path class="cls-2" d="M507.67,520.39v31.43H531V520.39h6.28v75.05H531V560.23H507.67v35.21H501.4V520.39Z" transform="translate(-209.95 -82.57)"/><path class="cls-2" d="M570.9,595.44V563.62l-15.32-43.23h7.14l6.79,20.73c1.84,5.69,3.32,10.24,4.8,15.49h.15c1.33-4.94,3-9.85,4.85-15.55l7-20.67h7.08l-16.18,43.09v32Z" transform="translate(-209.95 -82.57)"/><path class="cls-2" d="M637.62,557.16c0,25.75-10.1,39.5-22.42,39.5-12.82,0-21.72-15.41-21.72-38.09,0-23.78,9.48-39.4,22.38-39.4C629.05,519.17,637.62,534.87,637.62,557.16Zm-37.54,1.19c0,16.06,5.62,30.43,15.46,30.43S631,574.64,631,557.59c0-14.94-5-30.54-15.4-30.54S600.08,541.93,600.08,558.35Z" transform="translate(-209.95 -82.57)"/><path class="cls-2" d="M651.91,520.39v44.48c0,16.74,4.78,23.84,11.3,23.84,7.11,0,11.75-7.35,11.75-23.84V520.39h6.28v43.79c0,23.07-7.81,32.48-18.29,32.48-9.87,0-17.32-8.74-17.32-32.06V520.39Z" transform="translate(-209.95 -82.57)"/><path class="cls-2" d="M396.86,594.44l-12.24-75.05h6.61l5.76,38c1.39,9.38,2.68,18.67,3.54,25.94h.17c.78-7.45,2.3-16.4,3.93-26.06l6.49-37.86h6.47l5.91,38c1.35,9,2.64,17.83,3.39,25.74H427c1-8.22,2.31-16.59,3.81-25.93l6.4-37.84h6.41l-13.72,75.05h-6.52l-6.08-39.05c-1.53-9.67-2.54-17-3.19-24.55H414c-.8,7.53-1.93,14.83-3.72,24.54l-6.84,39.06Z" transform="translate(-209.95 -82.57)"/><path class="cls-2" d="M455.92,519.39v75.05h-6.27V519.39Z" transform="translate(-209.95 -82.57)"/><path class="cls-2" d="M476,527.58H461.31v-8.19h35.78v8.19H482.3v66.86H476Z" transform="translate(-209.95 -82.57)"/><path class="cls-2" d="M508.67,519.39v31.43H532V519.39h6.28v75.05H532V559.23H508.67v35.21H502.4V519.39Z" transform="translate(-209.95 -82.57)"/><path class="cls-2" d="M571.9,594.44V562.62l-15.32-43.23h7.14l6.79,20.73c1.84,5.69,3.32,10.24,4.8,15.49h.15c1.33-4.94,3-9.85,4.85-15.55l7-20.67h7.08l-16.18,43.09v32Z" transform="translate(-209.95 -82.57)"/><path class="cls-2" d="M638.62,556.16c0,25.75-10.1,39.5-22.42,39.5-12.82,0-21.72-15.41-21.72-38.09,0-23.78,9.48-39.4,22.38-39.4C630.05,518.17,638.62,533.87,638.62,556.16Zm-37.54,1.19c0,16.06,5.62,30.43,15.46,30.43S632,573.64,632,556.59c0-14.94-5-30.54-15.4-30.54S601.08,540.93,601.08,557.35Z" transform="translate(-209.95 -82.57)"/><path class="cls-2" d="M652.91,519.39v44.48c0,16.74,4.78,23.84,11.3,23.84,7.11,0,11.75-7.35,11.75-23.84V519.39h6.28v43.79c0,23.07-7.81,32.48-18.29,32.48-9.87,0-17.32-8.74-17.32-32.06V519.39Z" transform="translate(-209.95 -82.57)"/><path class="cls-2" d="M397.86,593.44l-12.24-75.05h6.61l5.76,38c1.39,9.38,2.68,18.67,3.54,25.94h.17c.78-7.45,2.3-16.4,3.93-26.06l6.49-37.86h6.47l5.91,38c1.35,9,2.64,17.83,3.39,25.74H428c1-8.22,2.31-16.59,3.81-25.93l6.4-37.84h6.41l-13.72,75.05h-6.52l-6.08-39.05c-1.53-9.67-2.54-17-3.19-24.55H415c-.8,7.53-1.93,14.83-3.72,24.54l-6.84,39.06Z" transform="translate(-209.95 -82.57)"/><path class="cls-2" d="M456.92,518.39v75.05h-6.27V518.39Z" transform="translate(-209.95 -82.57)"/><path class="cls-2" d="M477,526.58H462.31v-8.19h35.78v8.19H483.3v66.86H477Z" transform="translate(-209.95 -82.57)"/><path class="cls-2" d="M509.67,518.39v31.43H533V518.39h6.28v75.05H533V558.23H509.67v35.21H503.4V518.39Z" transform="translate(-209.95 -82.57)"/><path class="cls-2" d="M572.9,593.44V561.62l-15.32-43.23h7.14l6.79,20.73c1.84,5.69,3.32,10.24,4.8,15.49h.15c1.33-4.94,3-9.85,4.85-15.55l7-20.67h7.08l-16.18,43.09v32Z" transform="translate(-209.95 -82.57)"/><path class="cls-2" d="M639.62,555.16c0,25.75-10.1,39.5-22.42,39.5-12.82,0-21.72-15.41-21.72-38.09,0-23.78,9.48-39.4,22.38-39.4C631.05,517.17,639.62,532.87,639.62,555.16Zm-37.54,1.19c0,16.06,5.62,30.43,15.46,30.43S633,572.64,633,555.59c0-14.94-5-30.54-15.4-30.54S602.08,539.93,602.08,556.35Z" transform="translate(-209.95 -82.57)"/><path class="cls-2" d="M653.91,518.39v44.48c0,16.74,4.78,23.84,11.3,23.84,7.11,0,11.75-7.35,11.75-23.84V518.39h6.28v43.79c0,23.07-7.81,32.48-18.29,32.48-9.87,0-17.32-8.74-17.32-32.06V518.39Z" transform="translate(-209.95 -82.57)"/><path class="cls-8" d="M397.86,593.44l-12.24-75.05h6.61l5.76,38c1.39,9.38,2.68,18.67,3.54,25.94h.17c.78-7.45,2.3-16.4,3.93-26.06l6.49-37.86h6.47l5.91,38c1.35,9,2.64,17.83,3.39,25.74H428c1-8.22,2.31-16.59,3.81-25.93l6.4-37.84h6.41l-13.72,75.05h-6.52l-6.08-39.05c-1.53-9.67-2.54-17-3.19-24.55H415c-.8,7.53-1.93,14.83-3.72,24.54l-6.84,39.06Z" transform="translate(-209.95 -82.57)"/><path class="cls-8" d="M456.92,518.39v75.05h-6.27V518.39Z" transform="translate(-209.95 -82.57)"/><path class="cls-8" d="M477,526.58H462.31v-8.19h35.78v8.19H483.3v66.86H477Z" transform="translate(-209.95 -82.57)"/><path class="cls-8" d="M509.67,518.39v31.43H533V518.39h6.28v75.05H533V558.23H509.67v35.21H503.4V518.39Z" transform="translate(-209.95 -82.57)"/><path class="cls-8" d="M572.9,593.44V561.62l-15.32-43.23h7.14l6.79,20.73c1.84,5.69,3.32,10.24,4.8,15.49h.15c1.33-4.94,3-9.85,4.85-15.55l7-20.67h7.08l-16.18,43.09v32Z" transform="translate(-209.95 -82.57)"/><path class="cls-8" d="M639.62,555.16c0,25.75-10.1,39.5-22.42,39.5-12.82,0-21.72-15.41-21.72-38.09,0-23.78,9.48-39.4,22.38-39.4C631.05,517.17,639.62,532.87,639.62,555.16Zm-37.54,1.19c0,16.06,5.62,30.43,15.46,30.43S633,572.64,633,555.59c0-14.94-5-30.54-15.4-30.54S602.08,539.93,602.08,556.35Z" transform="translate(-209.95 -82.57)"/><path class="cls-8" d="M653.91,518.39v44.48c0,16.74,4.78,23.84,11.3,23.84,7.11,0,11.75-7.35,11.75-23.84V518.39h6.28v43.79c0,23.07-7.81,32.48-18.29,32.48-9.87,0-17.32-8.74-17.32-32.06V518.39Z" transform="translate(-209.95 -82.57)"/></svg>